<?xml version="1.0" encoding="UTF-8"?>
<svg version="1.1" xmlns="http://www.w3.org/2000/svg" width="1080" height="1080">
<path d="M0 0 C0.89428711 0.05858185 1.78857422 0.1171637 2.70996094 0.17752075 C20.34156973 1.3739572 37.94028366 3.44912483 55.25 7.0625 C56.80473022 7.38275146 56.80473022 7.38275146 58.39086914 7.70947266 C61.47240277 8.35371383 64.54943166 9.0153995 67.625 9.6875 C68.53588379 9.88601562 69.44676758 10.08453125 70.38525391 10.2890625 C82.62813122 13.01222335 94.06127152 16.85928645 105.625 21.6875 C107.36136719 22.38939453 107.36136719 22.38939453 109.1328125 23.10546875 C118.01087605 26.72122145 126.35066718 30.97983075 134.625 35.8125 C135.78708984 36.47572266 135.78708984 36.47572266 136.97265625 37.15234375 C137.70355469 37.57902344 138.43445313 38.00570312 139.1875 38.4453125 C139.84878906 38.8283252 140.51007813 39.21133789 141.19140625 39.60595703 C141.66449219 39.96286621 142.13757813 40.31977539 142.625 40.6875 C142.625 41.3475 142.625 42.0075 142.625 42.6875 C143.19863281 42.95433594 143.77226563 43.22117188 144.36328125 43.49609375 C162.20906131 52.89672055 173.49868832 70.95914235 181.625 88.6875 C182.03621094 89.54859375 182.44742187 90.4096875 182.87109375 91.296875 C192.03429197 111.97646631 192.07219169 135.76897132 188.625 157.6875 C188.52848145 158.3460498 188.43196289 159.00459961 188.33251953 159.68310547 C186.08567296 174.79859052 180.80712419 188.24011854 173.625 201.6875 C172.965 201.6875 172.305 201.6875 171.625 201.6875 C171.3775 202.39261719 171.13 203.09773437 170.875 203.82421875 C169.46396341 207.05637443 167.6999274 209.65078902 165.625 212.5 C164.92375 213.47582031 164.2225 214.45164062 163.5 215.45703125 C162.88125 216.19308594 162.2625 216.92914063 161.625 217.6875 C160.965 217.6875 160.305 217.6875 159.625 217.6875 C159.439375 218.38875 159.25375 219.09 159.0625 219.8125 C157.10432486 223.72885028 154.21823769 226.2213864 150.625 228.6875 C149.965 228.6875 149.305 228.6875 148.625 228.6875 C148.36759033 229.28747803 148.11018066 229.88745605 147.8449707 230.50561523 C146.50791296 232.89690703 145.2974316 233.98271813 143.10546875 235.59765625 C142.06616211 236.37012695 142.06616211 236.37012695 141.00585938 237.15820312 C139.92014648 237.94614258 139.92014648 237.94614258 138.8125 238.75 C138.10029297 239.27916016 137.38808594 239.80832031 136.65429688 240.35351562 C133.07246635 242.99432869 129.48114561 245.45836599 125.625 247.6875 C124.71105469 248.26886719 123.79710937 248.85023438 122.85546875 249.44921875 C105.7368551 260.28294986 87.22592639 268.34662989 68.1875 275.1875 C67.48375244 275.44289551 66.78000488 275.69829102 66.05493164 275.96142578 C62.67773083 277.14147655 60.25249012 277.6875 56.625 277.6875 C56.625 278.6775 56.625 279.6675 56.625 280.6875 C57.57375 280.75066406 58.5225 280.81382812 59.5 280.87890625 C79.24990819 282.52658743 97.92356847 288.98287583 115.625 297.6875 C116.6665625 298.19667969 117.708125 298.70585937 118.78125 299.23046875 C121.57323148 300.66097574 124.2948007 302.16181242 127 303.75 C127.87398437 304.25660156 128.74796875 304.76320313 129.6484375 305.28515625 C130.30070312 305.74792969 130.95296875 306.21070313 131.625 306.6875 C131.625 307.3475 131.625 308.0075 131.625 308.6875 C132.31851562 308.90148437 133.01203125 309.11546875 133.7265625 309.3359375 C137.41599385 311.05634619 140.08536238 313.53740652 143 316.3125 C143.57218262 316.84866943 144.14436523 317.38483887 144.73388672 317.93725586 C148.46033076 321.46843465 151.97608287 325.1130273 155.2578125 329.06640625 C156.60532196 330.71268464 156.60532196 330.71268464 158.15234375 332.203125 C165.87404458 339.98627173 169.59113294 350.74003871 173.625 360.6875 C173.94984375 361.41839844 174.2746875 362.14929688 174.609375 362.90234375 C180.24562394 378.35867258 181.12306062 394.4813541 181.125 410.75 C181.12912903 411.57062927 181.13325806 412.39125854 181.13751221 413.23675537 C181.18202024 432.80903998 177.84917195 452.79087426 169.625 470.6875 C169.23103027 471.54698242 169.23103027 471.54698242 168.82910156 472.42382812 C163.99884705 482.83155884 158.25905313 492.3364781 151.625 501.6875 C150.73748047 502.94433594 150.73748047 502.94433594 149.83203125 504.2265625 C147.03798153 508.06209605 144.03061176 511.36921162 140.625 514.6875 C139.861875 515.63625 139.09875 516.585 138.3125 517.5625 C135.68983707 520.7827317 132.64701136 523.39138018 129.48828125 526.07421875 C127.48285564 527.76456634 127.48285564 527.76456634 125.25 530.125 C123.625 531.6875 123.625 531.6875 121.625 531.6875 C121.26728516 532.56148437 121.26728516 532.56148437 120.90234375 533.453125 C118.35429269 537.91026631 113.66463723 540.63966336 109.625 543.6875 C108.76261719 544.34105469 107.90023438 544.99460937 107.01171875 545.66796875 C90.6052987 557.8451783 72.98204057 567.79573792 54.625 576.6875 C53.67923096 577.14987061 53.67923096 577.14987061 52.71435547 577.62158203 C43.21828663 582.24964788 33.56589941 586.12637237 23.625 589.6875 C22.1574952 590.22119779 20.6900482 590.75505452 19.22265625 591.2890625 C11.43283782 594.10350954 3.67086072 596.69256741 -4.375 598.6875 C-5.58414062 598.99300781 -6.79328125 599.29851563 -8.0390625 599.61328125 C-10.7610589 600.29981731 -13.48527746 600.97660639 -16.2109375 601.6484375 C-18.91083704 602.31618163 -21.60212181 603.00851242 -24.2890625 603.7265625 C-34.56010308 606.44502567 -44.85386928 608.23810164 -55.375 609.6875 C-56.33567383 609.82043457 -57.29634766 609.95336914 -58.28613281 610.09033203 C-61.35606793 610.5087799 -64.42747564 610.91353115 -67.5 611.3125 C-68.428125 611.43568604 -69.35625 611.55887207 -70.3125 611.68579102 C-86.03801592 613.65556435 -101.79779899 613.89502836 -117.625 613.875 C-118.587547 613.87406342 -119.55009399 613.87312683 -120.54180908 613.87216187 C-156.26134521 613.79722164 -196.85466239 613.20992959 -229.375 596.6875 C-230.82177655 596.1907461 -232.27567095 595.71445952 -233.734375 595.25390625 C-258.23210202 587.34595797 -278.46702983 568.47915784 -291.375 546.6875 C-291.73964355 546.07648437 -292.10428711 545.46546875 -292.47998047 544.8359375 C-298.12143318 535.2334648 -302.09519032 525.31246956 -305.375 514.6875 C-305.5925293 513.99833496 -305.81005859 513.30916992 -306.03417969 512.59912109 C-326.89812373 445.13061822 -319.35638559 365.19377046 -312.05253601 296.22264099 C-311.50833369 291.06975608 -311.04411987 285.91596013 -310.63720703 280.75024414 C-308.92431048 259.30553313 -305.70935924 237.76238099 -301.2109375 216.73046875 C-300.42620847 213.04674627 -299.84102025 209.35496668 -299.3125 205.625 C-298.61120982 200.78978876 -297.50854516 196.22450939 -296.15234375 191.53515625 C-295.30679675 188.43764989 -294.64508695 185.33275445 -294 182.1875 C-288.83240728 157.66151588 -281.15750175 133.34164508 -270.375 110.6875 C-269.58806476 109.00022234 -268.80165911 107.31269765 -268.015625 105.625 C-267.13602681 103.74971369 -266.25581115 101.87471689 -265.375 100 C-264.95959961 99.10837158 -264.54419922 98.21674316 -264.11621094 97.2980957 C-259.76221035 88.09937023 -254.26980895 79.95984104 -248.375 71.6875 C-247.42947266 70.33591797 -247.42947266 70.33591797 -246.46484375 68.95703125 C-238.91196469 58.31092538 -230.66893834 49.70719615 -220.375 41.6875 C-219.611875 41.0584375 -218.84875 40.429375 -218.0625 39.78125 C-212.53033688 35.2764886 -206.71936361 31.92328445 -200.375 28.6875 C-199.18990903 28.06417293 -198.00502339 27.4404554 -196.8203125 26.81640625 C-181.10330494 18.64179048 -164.60559873 11.89439628 -147.375 7.6875 C-146.53549805 7.4802832 -145.69599609 7.27306641 -144.83105469 7.05957031 C-97.95586599 -4.0899438 -47.7528543 -3.15461778 0 0 Z M-90.25 140 C-91.18658447 140.46575439 -91.18658447 140.46575439 -92.14208984 140.94091797 C-103.6845209 146.76778504 -112.91175087 153.53386615 -117.64453125 166.04296875 C-121.66413387 179.5221309 -122.49957852 193.63427818 -116.375 206.6875 C-112.67531903 212.50465794 -108.52907255 217.46393819 -102.375 220.6875 C-101.715 220.6875 -101.055 220.6875 -100.375 220.6875 C-100.375 221.3475 -100.375 222.0075 -100.375 222.6875 C-73.94693069 233.6019494 -41.75535054 234.8162827 -14.83129883 224.15283203 C-0.86730765 218.22372675 10.92710261 208.86044413 17.3984375 194.875 C20.66927265 185.34957503 20.7810187 171.84635733 16.4375 162.6875 C15.10139012 160.53331752 15.10139012 160.53331752 13.625 158.6875 C13.21765625 158.11386719 12.8103125 157.54023438 12.390625 156.94921875 C2.81826597 144.42434638 -14.8017076 137.90194116 -29.875 135.375 C-37.70895071 134.51005276 -45.56174425 134.4822924 -53.4375 134.4375 C-54.69175781 134.42807373 -55.94601562 134.41864746 -57.23828125 134.40893555 C-68.61087722 134.44834112 -79.94016756 134.82212202 -90.25 140 Z M-122.375 377.6875 C-122.375 378.3475 -122.375 379.0075 -122.375 379.6875 C-122.973125 379.93628906 -123.57125 380.18507813 -124.1875 380.44140625 C-131.24370015 384.46092027 -134.20369961 394.33848329 -136.375 401.6875 C-139.69568917 416.29211409 -139.13521493 433.75563345 -131.140625 446.68359375 C-129.8169664 448.49058287 -129.8169664 448.49058287 -127.375 450.6875 C-126.1065625 451.925 -126.1065625 451.925 -124.8125 453.1875 C-104.21066522 469.29720539 -75.15599781 468.76994835 -50.375 466.6875 C-37.41441294 464.99200188 -25.32361752 460.87989951 -14.375 453.6875 C-13.64023437 453.20925781 -12.90546875 452.73101563 -12.1484375 452.23828125 C-9.87482016 450.68043234 -7.75710562 449.07536601 -5.8203125 447.109375 C-4.375 445.6875 -4.375 445.6875 -2.375 444.6875 C-2.065625 444.06875 -1.75625 443.45 -1.4375 442.8125 C-0.375 440.6875 -0.375 440.6875 1.03515625 439.2890625 C8.0765225 432.19579429 10.54809063 421.36745032 10.64550781 411.63964844 C10.20500868 399.60887334 6.24704633 388.30954633 -2.375 379.6875 C-4.9469578 377.53772101 -7.61396191 375.58668134 -10.375 373.6875 C-11.30119141 373.0378125 -11.30119141 373.0378125 -12.24609375 372.375 C-14.24458216 371.0454443 -16.27545938 369.85101096 -18.375 368.6875 C-19.51001953 368.05328125 -19.51001953 368.05328125 -20.66796875 367.40625 C-50.72761738 352.84263885 -96.75991569 355.27430123 -122.375 377.6875 Z " fill="#BFDFFC" transform="translate(834.375,192.3125)"/>
<path d="M0 0 C33.52239058 0.08106987 67.49969859 5.32786533 97.85546875 20.0078125 C99.06009766 20.56082031 99.06009766 20.56082031 100.2890625 21.125 C115.37498693 28.24155694 130.51479425 40.45251779 138.85546875 55.0078125 C139.54576172 56.01908203 139.54576172 56.01908203 140.25 57.05078125 C143.76531794 62.36733648 146.06854099 67.81830028 148.10546875 73.8203125 C148.47442261 74.88511841 148.47442261 74.88511841 148.85083008 75.97143555 C152.50704344 87.23771839 153.19929219 98.67396368 153.16796875 110.4453125 C153.18408203 111.65251953 153.20019531 112.85972656 153.21679688 114.10351562 C153.23011294 138.99123397 143.57537214 161.12365315 126.29296875 178.8828125 C113.59584589 190.99291084 98.59030444 197.39252097 81.85546875 202.0078125 C80.89898437 202.30429687 79.9425 202.60078125 78.95703125 202.90625 C68.87552154 205.82382158 58.28189531 206.31749224 47.85546875 207.0078125 C47.20759399 207.0515802 46.55971924 207.0953479 45.89221191 207.14044189 C32.00341745 208.05343118 18.14536028 208.1651712 4.23046875 208.1328125 C3.12142181 208.13192627 2.01237488 208.13104004 0.86972046 208.13012695 C-10.87356714 208.11912136 -22.60146996 208.10136953 -34.33203125 207.5078125 C-44.08769611 207.01936801 -53.83496141 206.83250416 -63.60171509 206.77563477 C-65.30323815 206.7639951 -67.00473574 206.74713631 -68.70614624 206.72436523 C-93.67254257 206.29784407 -93.67254257 206.29784407 -115.33203125 216.5703125 C-117.90282312 221.44595225 -118.00706929 225.60687339 -117.14453125 231.0078125 C-112.91639497 239.78932632 -104.89314638 243.75832688 -96.14453125 247.0078125 C-82.7117476 251.45408151 -69.0365429 254.43640139 -55.14453125 257.0078125 C-32.60031631 261.24184039 -10.26758094 265.91920835 11.85546875 272.0078125 C12.82742188 272.27335937 13.799375 272.53890625 14.80078125 272.8125 C20.59738763 274.47133591 26.16809626 276.62356029 31.77734375 278.828125 C34.22972392 279.76799659 36.66133841 280.6078619 39.16796875 281.3828125 C59.61370771 288.02201925 79.80851705 299.03853696 96.85546875 312.0078125 C98.24826598 312.97055304 99.64368903 313.92951835 101.04296875 314.8828125 C102.43515625 315.9346875 102.43515625 315.9346875 103.85546875 317.0078125 C103.85546875 317.6678125 103.85546875 318.3278125 103.85546875 319.0078125 C104.65984375 319.348125 104.65984375 319.348125 105.48046875 319.6953125 C111.22079371 322.86759735 116.06623964 327.67333039 119.85546875 333.0078125 C119.85546875 333.6678125 119.85546875 334.3278125 119.85546875 335.0078125 C120.51546875 335.0078125 121.17546875 335.0078125 121.85546875 335.0078125 C123.49367727 337.08070812 124.99799523 339.14061315 126.48046875 341.3203125 C126.90070313 341.91521484 127.3209375 342.51011719 127.75390625 343.12304688 C130.85546875 347.62937551 130.85546875 347.62937551 130.85546875 351.0078125 C131.51546875 351.0078125 132.17546875 351.0078125 132.85546875 351.0078125 C151.12270757 388.23500007 157.80573432 427.06142844 148.85546875 468.0078125 C148.64019531 469.03261719 148.42492187 470.05742188 148.203125 471.11328125 C141.49597177 500.52156849 124.37628278 529.02501882 102.85546875 550.0078125 C102.03046875 550.8946875 101.20546875 551.7815625 100.35546875 552.6953125 C97.85546875 555.0078125 97.85546875 555.0078125 95.16796875 556.0703125 C92.72340586 556.74906259 92.72340586 556.74906259 92.0703125 558.78515625 C90.35398597 561.92531637 87.98730559 563.41453798 85.10546875 565.5078125 C84.079375 566.260625 83.05328125 567.0134375 81.99609375 567.7890625 C73.19349692 574.0078125 73.19349692 574.0078125 70.85546875 574.0078125 C70.85546875 574.6678125 70.85546875 575.3278125 70.85546875 576.0078125 C62.2525492 582.03637355 52.2894237 586.43703123 42.85546875 591.0078125 C42.12005859 591.36584961 41.38464844 591.72388672 40.62695312 592.09277344 C25.17796291 599.58988081 25.17796291 599.58988081 16.85546875 602.0078125 C14.9011102 602.61614955 12.94684297 603.22479142 10.99389648 603.83764648 C9.57098334 604.283576 8.14731674 604.72710857 6.72290039 605.16821289 C3.2003474 606.26019191 -0.29523545 607.39663984 -3.76953125 608.6328125 C-9.75453988 610.65048586 -15.96446618 611.75739679 -22.14453125 613.0078125 C-23.21703125 613.24371094 -24.28953125 613.47960937 -25.39453125 613.72265625 C-38.50759372 616.53043004 -51.84269404 618.34637061 -65.14453125 620.0078125 C-65.84311752 620.09704483 -66.5417038 620.18627716 -67.26145935 620.2782135 C-74.79803942 621.14645227 -82.31244634 621.17167791 -89.890625 621.17578125 C-91.31055228 621.17900648 -92.73047925 621.18237143 -94.15040588 621.18586731 C-97.11810066 621.19182313 -100.08576648 621.19371112 -103.0534668 621.19311523 C-106.05645822 621.19303432 -109.05929596 621.19992513 -112.06225586 621.21362305 C-144.16300453 621.35765998 -144.16300453 621.35765998 -160.14453125 619.0078125 C-162.04996704 618.73432983 -162.04996704 618.73432983 -163.99389648 618.45532227 C-167.5534525 617.91316325 -171.09852223 617.31960111 -174.64453125 616.6953125 C-176.49220093 616.37264404 -176.49220093 616.37264404 -178.37719727 616.04345703 C-185.67764844 614.73100566 -192.90399651 613.25568715 -200.08203125 611.3828125 C-200.82582031 611.18905029 -201.56960937 610.99528809 -202.3359375 610.7956543 C-205.39931347 609.94842145 -208.18595805 608.98678995 -211.0234375 607.546875 C-213.71672158 606.21877246 -216.07354109 605.38913882 -218.94140625 604.57421875 C-223.98884203 603.11793726 -228.65579688 601.20128428 -233.39453125 598.9453125 C-234.21373047 598.55537109 -235.03292969 598.16542969 -235.87695312 597.76367188 C-243.60958118 593.96677645 -250.39484603 589.32548992 -257.14453125 584.0078125 C-258.15386719 583.23179687 -259.16320312 582.45578125 -260.203125 581.65625 C-265.8268064 577.21529671 -270.67335372 572.5995041 -275.14453125 567.0078125 C-275.70527344 566.34523438 -276.26601563 565.68265625 -276.84375 565 C-295.2827774 542.54167898 -301.25098097 512.40016515 -298.64599609 483.86157227 C-296.52257513 464.51370258 -291.14289302 444.42089124 -275.41015625 431.59375 C-262.62048655 421.61780763 -249.466655 416.47996209 -233.70703125 413.2578125 C-232.68343506 413.04697021 -231.65983887 412.83612793 -230.60522461 412.61889648 C-217.21446465 410.03155088 -203.68097163 409.7443897 -190.08203125 409.6953125 C-189.2707074 409.69136475 -188.45938354 409.68741699 -187.62347412 409.68334961 C-169.74981383 409.64386593 -152.00588627 411.01015929 -134.21069336 412.5847168 C-96.4876585 416.79226598 -96.4876585 416.79226598 -61.14453125 406.0703125 C-56.12116359 400.8899646 -53.81724081 397.40788533 -53.92578125 390 C-54.44207302 385.29805708 -57.65133811 381.93454189 -61.14453125 379.0078125 C-68.1238297 374.9636551 -75.32624276 373.20609145 -83.14453125 371.3828125 C-83.79136871 371.22929321 -84.43820618 371.07577393 -85.10464478 370.91760254 C-93.52941776 368.92150361 -101.8442267 367.25069974 -110.46875 366.3984375 C-114.73249696 365.94532943 -118.92228929 365.24442105 -123.14453125 364.5078125 C-128.80351605 363.52576432 -134.43640159 362.71021196 -140.14453125 362.0703125 C-147.57707214 361.18848561 -154.75884531 359.63806537 -162.04296875 357.94140625 C-165.20986531 357.20600322 -168.37193379 356.59207757 -171.58203125 356.0703125 C-185.91588598 353.53179777 -199.63194459 349.03836263 -213.16943359 343.77294922 C-214.80730364 343.13845173 -216.45346038 342.52539344 -218.1015625 341.91796875 C-227.76529448 338.28040889 -236.79012346 333.15791808 -245.265625 327.2890625 C-246.86211954 326.20039262 -248.52927703 325.2165292 -250.20703125 324.2578125 C-250.84640625 323.8453125 -251.48578125 323.4328125 -252.14453125 323.0078125 C-252.14453125 322.3478125 -252.14453125 321.6878125 -252.14453125 321.0078125 C-253.03398437 320.59015625 -253.03398437 320.59015625 -253.94140625 320.1640625 C-260.49686435 316.72360931 -264.90917184 311.05625045 -269.34765625 305.27734375 C-270.86028403 303.3668291 -272.40499482 301.70386052 -274.14453125 300.0078125 C-278.71724837 294.41893602 -281.57707856 288.16797041 -284.515625 281.625 C-285.41154909 279.63548992 -286.32361587 277.65205517 -287.3046875 275.703125 C-304.13598748 241.76795338 -302.51269914 191.57136204 -290.734375 156.5078125 C-290.20821046 155.0064812 -289.67845395 153.50640229 -289.14453125 152.0078125 C-288.9139502 151.34136719 -288.68336914 150.67492187 -288.44580078 149.98828125 C-283.27368132 135.23440672 -275.38267601 121.57168937 -266.14453125 109.0078125 C-265.36701927 107.80376574 -264.59517572 106.59601652 -263.83203125 105.3828125 C-263.27515625 104.5990625 -262.71828125 103.8153125 -262.14453125 103.0078125 C-261.48453125 103.0078125 -260.82453125 103.0078125 -260.14453125 103.0078125 C-259.92667969 102.47414063 -259.70882812 101.94046875 -259.484375 101.390625 C-257.66276861 98.15103347 -255.23236244 95.57829715 -252.70703125 92.8828125 C-252.17279541 92.30950195 -251.63855957 91.73619141 -251.08813477 91.14550781 C-246.04088376 85.79215969 -240.71631809 80.81357944 -235.14453125 76.0078125 C-234.28472656 75.26015625 -233.42492187 74.5125 -232.5390625 73.7421875 C-223.76862361 66.33200871 -214.1956523 60.12061252 -204.45703125 54.0703125 C-201.24222026 52.1612774 -201.24222026 52.1612774 -198.89453125 50.1953125 C-197.14453125 49.0078125 -197.14453125 49.0078125 -193.14453125 49.0078125 C-193.14453125 48.3478125 -193.14453125 47.6878125 -193.14453125 47.0078125 C-190.66665821 45.75519447 -188.18729223 44.50568689 -185.70703125 43.2578125 C-185.01931641 42.90976563 -184.33160156 42.56171875 -183.62304688 42.203125 C-175.45142685 38.09831122 -167.06312071 34.50913626 -158.64453125 30.9453125 C-157.45923828 30.43774414 -157.45923828 30.43774414 -156.25 29.91992188 C-151.73082198 28.00796194 -147.20200475 26.29377458 -142.53369141 24.78295898 C-139.87151954 23.91923574 -137.22530586 23.01407134 -134.578125 22.10546875 C-123.96218559 18.48872072 -113.42582394 14.95939504 -102.46533203 12.53369141 C-99.78608177 11.9265901 -97.12119474 11.2677464 -94.453125 10.61328125 C-63.66962379 3.30693726 -31.606264 0.07852488 0 0 Z " fill="#BFDFFC" transform="translate(328.14453125,188.9921875)"/>
<path d="M0 0 C33.52105235 0.08106663 67.50150413 5.32633022 97.85546875 20.0078125 C98.70496094 20.3996875 99.55445313 20.7915625 100.4296875 21.1953125 C104.32628939 23.03917587 107.61080654 25.16873306 110.85546875 28.0078125 C109.86546875 28.3378125 108.87546875 28.6678125 107.85546875 29.0078125 C107.19546875 28.6778125 106.53546875 28.3478125 105.85546875 28.0078125 C105.85546875 27.3478125 105.85546875 26.6878125 105.85546875 26.0078125 C104.75332031 25.83572266 104.75332031 25.83572266 103.62890625 25.66015625 C100.81057837 24.99725378 98.94010392 24.06651657 96.48046875 22.5703125 C92.67763799 20.375644 89.1407558 19.05892064 84.85546875 18.0078125 C81.32690143 16.93390071 78.05670068 15.64369199 74.73046875 14.0703125 C65.80584481 10.06242629 56.33469224 8.6508936 46.69140625 7.4375 C43.85546875 7.0078125 43.85546875 7.0078125 41.85546875 6.0078125 C39.45868926 5.78115304 37.08196905 5.60649184 34.6796875 5.47265625 C33.95868362 5.42967911 33.23767975 5.38670197 32.49482727 5.34242249 C30.96078747 5.25209979 29.42661647 5.16398282 27.89233398 5.07788086 C25.58993049 4.94796242 23.28816218 4.80952465 20.98632812 4.66992188 C6.21036099 3.10026459 6.21036099 3.10026459 -8.14453125 5.0078125 C-8.14453125 4.3478125 -8.14453125 3.6878125 -8.14453125 3.0078125 C-9.01464844 3.20697266 -9.01464844 3.20697266 -9.90234375 3.41015625 C-22.43656665 6.2438007 -22.43656665 6.2438007 -26.14453125 5.0078125 C-34.45185946 4.4817225 -42.69313263 5.13170681 -50.95703125 5.9453125 C-52.29205688 6.07546753 -52.29205688 6.07546753 -53.65405273 6.20825195 C-57.73127929 6.30718505 -57.73127929 6.30718505 -61.14453125 8.0078125 C-63.45101884 8.36196995 -65.76537574 8.66527722 -68.08203125 8.9453125 C-76.75031472 10.04821498 -84.9740236 11.6687826 -93.39453125 14.0078125 C-100.60438697 15.97747747 -107.71285577 17.13753925 -115.14453125 18.0078125 C-115.14453125 18.6678125 -115.14453125 19.3278125 -115.14453125 20.0078125 C-116.70569944 20.34732869 -118.26854463 20.67913794 -119.83203125 21.0078125 C-120.70214844 21.1934375 -121.57226562 21.3790625 -122.46875 21.5703125 C-125.08166089 21.99753297 -127.50266163 22.08397451 -130.14453125 22.0078125 C-123.87993326 15.74321451 -111.12359899 14.56502742 -102.65869141 12.59814453 C-100.89814609 12.18476343 -99.14017804 11.76032196 -97.38427734 11.32763672 C-65.66425311 3.55235614 -32.6285381 0.08106469 0 0 Z M-130.14453125 22.0078125 C-134.31345315 25.65561916 -139.59256861 28.0078125 -145.14453125 28.0078125 C-145.47453125 28.9978125 -145.80453125 29.9878125 -146.14453125 31.0078125 C-148.4453125 31.78125 -148.4453125 31.78125 -151.45703125 32.3828125 C-158.77533814 34.03533341 -165.67620513 36.61984836 -172.30078125 40.16015625 C-174.14453125 41.0078125 -174.14453125 41.0078125 -177.14453125 41.0078125 C-177.14453125 41.6678125 -177.14453125 42.3278125 -177.14453125 43.0078125 C-178.26730469 43.51570313 -179.39007813 44.02359375 -180.546875 44.546875 C-191.43503928 49.51131403 -191.43503928 49.51131403 -201.48046875 55.9765625 C-203.14453125 57.0078125 -203.14453125 57.0078125 -206.14453125 57.0078125 C-206.14453125 57.6678125 -206.14453125 58.3278125 -206.14453125 59.0078125 C-207.13453125 59.0078125 -208.12453125 59.0078125 -209.14453125 59.0078125 C-209.14453125 59.6678125 -209.14453125 60.3278125 -209.14453125 61.0078125 C-212.09934617 63.75156921 -212.91925033 64.0078125 -217.14453125 64.0078125 C-217.38429687 64.6059375 -217.6240625 65.2040625 -217.87109375 65.8203125 C-219.40973751 68.46338154 -220.9239883 69.42116831 -223.51953125 71.0078125 C-226.80929658 73.08833825 -229.4390182 75.19407893 -232.14453125 78.0078125 C-232.80453125 78.0078125 -233.46453125 78.0078125 -234.14453125 78.0078125 C-234.14453125 78.6678125 -234.14453125 79.3278125 -234.14453125 80.0078125 C-234.72203125 80.2553125 -235.29953125 80.5028125 -235.89453125 80.7578125 C-238.27903014 81.94771725 -238.27903014 81.94771725 -240.26953125 84.1328125 C-240.88828125 84.7515625 -241.50703125 85.3703125 -242.14453125 86.0078125 C-242.80453125 86.0078125 -243.46453125 86.0078125 -244.14453125 86.0078125 C-244.14453125 86.6678125 -244.14453125 87.3278125 -244.14453125 88.0078125 C-244.80453125 88.0078125 -245.46453125 88.0078125 -246.14453125 88.0078125 C-246.20640625 88.5646875 -246.26828125 89.1215625 -246.33203125 89.6953125 C-247.47813766 92.95730768 -249.68491864 94.60540019 -252.14453125 97.0078125 C-252.80453125 97.9978125 -253.46453125 98.9878125 -254.14453125 100.0078125 C-257.39249487 104.87975793 -260.48037657 108.2276496 -266.14453125 110.0078125 C-264.82453125 107.6978125 -263.50453125 105.3878125 -262.14453125 103.0078125 C-261.48453125 103.0078125 -260.82453125 103.0078125 -260.14453125 103.0078125 C-259.92667969 102.47414063 -259.70882812 101.94046875 -259.484375 101.390625 C-257.66276861 98.15103347 -255.23236244 95.57829715 -252.70703125 92.8828125 C-252.17279541 92.30950195 -251.63855957 91.73619141 -251.08813477 91.14550781 C-246.04088376 85.79215969 -240.71631809 80.81357944 -235.14453125 76.0078125 C-233.85482422 74.88632812 -233.85482422 74.88632812 -232.5390625 73.7421875 C-223.76862361 66.33200871 -214.1956523 60.12061252 -204.45703125 54.0703125 C-201.24222026 52.1612774 -201.24222026 52.1612774 -198.89453125 50.1953125 C-197.14453125 49.0078125 -197.14453125 49.0078125 -193.14453125 49.0078125 C-193.14453125 48.3478125 -193.14453125 47.6878125 -193.14453125 47.0078125 C-190.66665821 45.75519447 -188.18729223 44.50568689 -185.70703125 43.2578125 C-185.01931641 42.90976563 -184.33160156 42.56171875 -183.62304688 42.203125 C-175.45142685 38.09831122 -167.06312071 34.50913626 -158.64453125 30.9453125 C-157.45923828 30.43774414 -157.45923828 30.43774414 -156.25 29.91992188 C-151.57431402 27.94174704 -146.88482861 26.18587219 -142.04785156 24.64160156 C-139.97781169 23.98263122 -139.97781169 23.98263122 -137.39453125 22.8203125 C-134.85306002 21.902559 -132.82629342 21.85456895 -130.14453125 22.0078125 Z " fill="#D5EDFA" transform="translate(328.14453125,188.9921875)"/>
<path d="M0 0 C0 0.66 0 1.32 0 2 C-0.59229904 2.01030746 -1.18459808 2.02061493 -1.79484558 2.03123474 C-8.07529759 2.14115738 -14.35565781 2.2555539 -20.63598633 2.37231445 C-22.96604452 2.41508104 -25.29612254 2.45678381 -27.6262207 2.49731445 C-54.53866247 2.47474022 -54.53866247 2.47474022 -81.20068359 5.49609375 C-87.8590223 6.6946644 -94.64471817 7.18374312 -101.37304688 7.85546875 C-107.13103099 8.46020339 -112.4806696 9.17114824 -118 11 C-119.56785842 11.47129739 -121.1369816 11.93839835 -122.70703125 12.40234375 C-124.40899607 12.91359033 -126.11081651 13.42531778 -127.8125 13.9375 C-129.50651042 14.44661458 -131.20052083 14.95572917 -132.89453125 15.46484375 C-134.15317993 15.84564087 -134.15317993 15.84564087 -135.43725586 16.23413086 C-137.16904415 16.7516711 -138.90439693 17.25740849 -140.64282227 17.75219727 C-145.46831372 19.14042685 -149.85339595 20.70321761 -154.3125 23.0625 C-163.72264631 28 -163.72264631 28 -168 28 C-168 28.66 -168 29.32 -168 30 C-169.98 30.33 -171.96 30.66 -174 31 C-174 31.66 -174 32.32 -174 33 C-175.546875 33.680625 -175.546875 33.680625 -177.125 34.375 C-188.73899129 40.15083109 -200.60486393 49.23883335 -208.6875 59.3125 C-209.8321875 60.6428125 -209.8321875 60.6428125 -211 62 C-211.66 62 -212.32 62 -213 62 C-213.268125 62.5775 -213.53625 63.155 -213.8125 63.75 C-215.02929189 66.05550043 -216.30333879 68.02056192 -218 70 C-218.66 70 -219.32 70 -220 70 C-220.33 71.65 -220.66 73.3 -221 75 C-221.66 75 -222.32 75 -223 75 C-223.268125 75.7425 -223.53625 76.485 -223.8125 77.25 C-224.9479062 79.87936173 -226.27010359 81.74361338 -228 84 C-228.495 85.485 -228.495 85.485 -229 87 C-229.66 87 -230.32 87 -231 87 C-231.0825 87.70125 -231.165 88.4025 -231.25 89.125 C-232.17548815 92.67270457 -233.94262148 94.97444336 -236 98 C-237.03485877 100.31808364 -238.0355414 102.65175298 -239 105 C-240 107 -241 109 -242 111 C-243.47877964 114.28852425 -244.85881176 117.57643527 -246 121 C-246.66 121 -247.32 121 -248 121 C-249.72852643 126.98336072 -251.36959185 132.98922864 -253 139 C-253.66 139 -254.32 139 -255 139 C-255.0825 140.11375 -255.165 141.2275 -255.25 142.375 C-255.87919026 147.6151219 -257.88630871 152.20241234 -260 157 C-260.33 157 -260.66 157 -261 157 C-261.15987289 152.806411 -260.76794599 149.57734268 -259.375 145.625 C-259.01019531 144.58730469 -258.64539063 143.54960937 -258.26953125 142.48046875 C-257.64111328 140.75763672 -257.64111328 140.75763672 -257 139 C-256.76974121 138.36143066 -256.53948242 137.72286133 -256.30224609 137.06494141 C-253.21773381 128.53133097 -249.90172523 120.19756412 -246 112 C-245.21306476 110.31272234 -244.42665911 108.62519765 -243.640625 106.9375 C-242.76102681 105.06221369 -241.88081115 103.18721689 -241 101.3125 C-240.37689941 99.97505737 -240.37689941 99.97505737 -239.74121094 98.6105957 C-235.38721035 89.41187023 -229.89480895 81.27234104 -224 73 C-223.36964844 72.09894531 -222.73929688 71.19789063 -222.08984375 70.26953125 C-214.53696469 59.62342538 -206.29393834 51.01969615 -196 43 C-195.236875 42.3709375 -194.47375 41.741875 -193.6875 41.09375 C-188.15533688 36.5889886 -182.34436361 33.23578445 -176 30 C-174.81490903 29.37667293 -173.63002339 28.7529554 -172.4453125 28.12890625 C-156.72830494 19.95429048 -140.23059873 13.20689628 -123 9 C-122.16049805 8.7927832 -121.32099609 8.58556641 -120.45605469 8.37207031 C-81.13676474 -0.98023291 -40.14656154 -0.64656156 0 0 Z " fill="#D5ECFB" transform="translate(810,191)"/>
<path d="M0 0 C3.40312738 1.05875074 6.01353231 2.00902154 9 4 C9 4.66 9 5.32 9 6 C9.69351563 6.21398437 10.38703125 6.42796875 11.1015625 6.6484375 C14.79099385 8.36884619 17.46036238 10.84990652 20.375 13.625 C20.94718262 14.16116943 21.51936523 14.69733887 22.10888672 15.24975586 C25.83533076 18.78093465 29.35108287 22.4255273 32.6328125 26.37890625 C33.98032196 28.02518464 33.98032196 28.02518464 35.52734375 29.515625 C43.24904458 37.29877173 46.96613294 48.05253871 51 58 C51.32484375 58.73089844 51.6496875 59.46179688 51.984375 60.21484375 C57.62062394 75.67117258 58.49806062 91.7938541 58.5 108.0625 C58.50412903 108.88312927 58.50825806 109.70375854 58.51251221 110.54925537 C58.55702024 130.12153998 55.22417195 150.10337426 47 168 C46.73735352 168.57298828 46.47470703 169.14597656 46.20410156 169.73632812 C41.37384705 180.14405884 35.63405313 189.6489781 29 199 C28.40832031 199.83789062 27.81664062 200.67578125 27.20703125 201.5390625 C24.41298153 205.37459605 21.40561176 208.68171162 18 212 C17.236875 212.94875 16.47375 213.8975 15.6875 214.875 C13.06483707 218.0952317 10.02201136 220.70388018 6.86328125 223.38671875 C4.85785564 225.07706634 4.85785564 225.07706634 2.625 227.4375 C1 229 1 229 -1 229 C-0.67 228.01 -0.34 227.02 0 226 C0.66 226 1.32 226 2 226 C2 225.34 2 224.68 2 224 C3.390625 222.66796875 3.390625 222.66796875 5.25 221.1875 C8.82565541 218.22708894 11.90001882 215.19996237 14 211 C14.66 211 15.32 211 16 211 C16.103125 210.360625 16.20625 209.72125 16.3125 209.0625 C16.539375 208.381875 16.76625 207.70125 17 207 C17.99 206.67 18.98 206.34 20 206 C21.20882096 203.99983534 21.20882096 203.99983534 22 202 C22.66 202 23.32 202 24 202 C24.0825 201.38125 24.165 200.7625 24.25 200.125 C25 198 25 198 26.9375 197.0625 C29.80428891 195.58566935 30.01976507 194.01072158 31 191 C32.77777778 186.11111111 32.77777778 186.11111111 35 185 C36.02292411 183.35878634 36.02292411 183.35878634 36.9375 181.375 C37.28167969 180.66085937 37.62585938 179.94671875 37.98046875 179.2109375 C39.3849312 176.16524499 40.71002391 173.09594261 42 170 C42.66 170 43.32 170 44 170 C44.1546875 168.7625 44.1546875 168.7625 44.3125 167.5 C44.93382268 164.33690271 45.88572345 161.57175835 47.0390625 158.57421875 C50.88795485 148.26356812 53.53416684 138.94791067 53.859375 127.9140625 C54 125 54 125 55 123 C55.09861458 120.54245026 55.13986666 118.1139047 55.1328125 115.65625 C55.13376923 114.93135376 55.13472595 114.20645752 55.13571167 113.45959473 C55.13639243 111.92635003 55.13454536 110.39310245 55.13037109 108.85986328 C55.12502134 106.50937442 55.13031953 104.15907665 55.13671875 101.80859375 C55.13605795 100.32031208 55.13477675 98.83203052 55.1328125 97.34375 C55.13483673 96.63851196 55.13686096 95.93327393 55.13894653 95.20666504 C55.17494742 91.47870629 55.17494742 91.47870629 54 88 C53.56321234 84.8654062 53.1843819 81.73147568 52.83789062 78.5859375 C52.39776782 74.95045156 51.71397032 72.20871188 50 69 C49.5683621 67.07016089 49.17678688 65.1311783 48.8125 63.1875 C47.30151851 56.24642878 44.56786299 50.33147096 41.42578125 44.01953125 C40 41 40 41 40 39 C39.34 39 38.68 39 38 39 C36.09418921 36.37951016 34.38148366 33.81065279 33 30.875 C32.01473139 28.80849191 32.01473139 28.80849191 29.875 26.875 C29.25625 26.25625 28.6375 25.6375 28 25 C28 24.34 28 23.68 28 23 C26.68 22.67 25.36 22.34 24 22 C24 21.34 24 20.68 24 20 C23.34 20 22.68 20 22 20 C21.46375 19.319375 20.9275 18.63875 20.375 17.9375 C16.27497366 12.86641479 11.43693744 7.81038866 5 6 C5 5.34 5 4.68 5 4 C2.525 3.01 2.525 3.01 0 2 C0 1.34 0 0.68 0 0 Z " fill="#D3EBF9" transform="translate(957,495)"/>
<path d="M0 0 C10.97308808 -0.16332601 21.81224489 0.26569217 32.75 1.125 C33.56348907 1.18835541 34.37697815 1.25171082 35.21511841 1.31698608 C66.45757986 3.81733811 98.04810833 9.00772118 127.07080078 21.19042969 C128.87298607 21.9466998 130.68425209 22.68122822 132.49609375 23.4140625 C141.37892287 27.02929632 149.72210082 31.29024779 158 36.125 C159.16208984 36.78822266 159.16208984 36.78822266 160.34765625 37.46484375 C161.07855469 37.89152344 161.80945313 38.31820312 162.5625 38.7578125 C163.22378906 39.1408252 163.88507813 39.52383789 164.56640625 39.91845703 C165.03949219 40.27536621 165.51257813 40.63227539 166 41 C166 41.66 166 42.32 166 43 C166.86044922 43.40025391 166.86044922 43.40025391 167.73828125 43.80859375 C179.65253348 50.0846679 188.53420798 61.11662471 196 72 C195.01 72.33 194.02 72.66 193 73 C193 72.34 193 71.68 193 71 C192.401875 70.79375 191.80375 70.5875 191.1875 70.375 C188.18763941 68.48937334 187.54702895 66.15593905 186 63 C184.35259924 61.3142876 182.68933922 59.6436814 181 58 C181 57.34 181 56.68 181 56 C180.01 55.67 179.02 55.34 178 55 C176 53 176 53 175 51 C173.35636866 50.27840576 171.68949614 49.60648579 170 49 C170 48.34 170 47.68 170 47 C169.34 47 168.68 47 168 47 C168 46.34 168 45.68 168 45 C167.360625 44.773125 166.72125 44.54625 166.0625 44.3125 C160.25966822 41.8255721 154.84699737 38.5543619 149.4375 35.3125 C148.77621094 34.91675781 148.11492187 34.52101562 147.43359375 34.11328125 C146.96050781 33.74589844 146.48742187 33.37851563 146 33 C146 32.34 146 31.68 146 31 C144.63875 30.7834375 144.63875 30.7834375 143.25 30.5625 C140.78523044 30.13590527 138.41152893 29.64925779 136 29 C136 28.34 136 27.68 136 27 C135.14728516 26.83564453 135.14728516 26.83564453 134.27734375 26.66796875 C129.1860196 25.62250486 124.75008434 24.16670514 120 22 C113.56569471 19.18780363 107.22147127 17.17534186 100.37109375 15.61328125 C98 15 98 15 97 14 C95.65595929 13.66475175 94.29829562 13.38398281 92.9375 13.125 C91.58978516 12.86783203 91.58978516 12.86783203 90.21484375 12.60546875 C88.62349609 12.30576172 88.62349609 12.30576172 87 12 C85.08380859 11.62294922 85.08380859 11.62294922 83.12890625 11.23828125 C76.57768336 9.96024171 70.08749187 8.79109219 63.42504883 8.26318359 C61.12559785 8.01363077 58.97551291 7.58512301 56.72265625 7.0703125 C50.19304975 5.73394538 43.60049356 5.19004453 36.97045898 4.62231445 C34.83329549 4.43928099 32.69691541 4.24870967 30.56054688 4.05664062 C22.14375317 3.30944446 22.14375317 3.30944446 13.71240234 2.75830078 C13.02683762 2.72003677 12.34127289 2.68177277 11.63493347 2.64234924 C9.75142406 2.54130955 7.86729408 2.45203526 5.9831543 2.36352539 C3 2 3 2 0 0 Z " fill="#D4ECFA" transform="translate(811,192)"/>
<path d="M0 0 C0.86044922 0.35771484 0.86044922 0.35771484 1.73828125 0.72265625 C-18.77857557 18.19600028 -41.05287195 31.99640303 -65.26171875 43.72265625 C-65.89223145 44.03090332 -66.52274414 44.33915039 -67.17236328 44.65673828 C-76.66843212 49.28480413 -86.32081934 53.16152862 -96.26171875 56.72265625 C-97.72922355 57.25635404 -99.19667055 57.79021077 -100.6640625 58.32421875 C-108.45388093 61.13866579 -116.21585803 63.72772366 -124.26171875 65.72265625 C-125.47085938 66.02816406 -126.68 66.33367187 -127.92578125 66.6484375 C-130.64777765 67.33497356 -133.37199621 68.01176264 -136.09765625 68.68359375 C-138.79755579 69.35133788 -141.48884056 70.04366867 -144.17578125 70.76171875 C-151.57010669 72.71759523 -158.9607421 74.30150599 -166.51171875 75.53515625 C-167.72758667 75.73927124 -167.72758667 75.73927124 -168.96801758 75.94750977 C-169.73009521 76.06537842 -170.49217285 76.18324707 -171.27734375 76.3046875 C-171.95055664 76.41014893 -172.62376953 76.51561035 -173.31738281 76.62426758 C-175.48722973 76.73406772 -177.19024588 76.34508012 -179.26171875 75.72265625 C-176.51196273 74.21801447 -174.17169758 73.38994827 -171.07421875 72.94140625 C-170.29304687 72.82152344 -169.511875 72.70164062 -168.70703125 72.578125 C-167.07682292 72.34114583 -165.44661458 72.10416667 -163.81640625 71.8671875 C-163.03523437 71.74730469 -162.2540625 71.62742187 -161.44921875 71.50390625 C-160.74152344 71.40142578 -160.03382813 71.29894531 -159.3046875 71.19335938 C-157.06209064 70.67666163 -155.31098988 69.7541857 -153.26171875 68.72265625 C-150.70795171 68.3167595 -148.20425376 67.98600856 -145.63671875 67.72265625 C-139.43338678 67.02351023 -133.35696031 66.09994641 -127.26171875 64.72265625 C-127.26171875 64.06265625 -127.26171875 63.40265625 -127.26171875 62.72265625 C-123.63171875 62.39265625 -120.00171875 62.06265625 -116.26171875 61.72265625 C-116.26171875 61.06265625 -116.26171875 60.40265625 -116.26171875 59.72265625 C-115.23691406 59.46871094 -114.21210937 59.21476563 -113.15625 58.953125 C-111.79546528 58.60589028 -110.4347941 58.25821041 -109.07421875 57.91015625 C-108.40068359 57.74451172 -107.72714844 57.57886719 -107.03320312 57.40820312 C-102.9716073 56.35813201 -99.79594751 54.94417147 -96.26171875 52.72265625 C-93.44921875 52.53515625 -93.44921875 52.53515625 -91.26171875 52.72265625 C-91.26171875 52.06265625 -91.26171875 51.40265625 -91.26171875 50.72265625 C-90.10542969 50.57570313 -90.10542969 50.57570313 -88.92578125 50.42578125 C-87.92289063 50.27625 -86.92 50.12671875 -85.88671875 49.97265625 C-84.88898438 49.8334375 -83.89125 49.69421875 -82.86328125 49.55078125 C-82.00476563 49.2775 -81.14625 49.00421875 -80.26171875 48.72265625 C-79.58688482 47.39343791 -78.9198795 46.06020874 -78.26171875 44.72265625 C-75.87890625 44.11328125 -75.87890625 44.11328125 -73.13671875 43.97265625 C-72.22664062 43.9159375 -71.3165625 43.85921875 -70.37890625 43.80078125 C-69.68023438 43.775 -68.9815625 43.74921875 -68.26171875 43.72265625 C-68.26171875 43.06265625 -68.26171875 42.40265625 -68.26171875 41.72265625 C-67.27171875 41.72265625 -66.28171875 41.72265625 -65.26171875 41.72265625 C-64.76671875 40.73265625 -64.76671875 40.73265625 -64.26171875 39.72265625 C-62.265625 38.65234375 -62.265625 38.65234375 -59.82421875 37.59765625 C-59.02113281 37.24445312 -58.21804688 36.89125 -57.390625 36.52734375 C-55.26171875 35.72265625 -55.26171875 35.72265625 -53.26171875 35.72265625 C-53.26171875 35.06265625 -53.26171875 34.40265625 -53.26171875 33.72265625 C-52.67003906 33.49191406 -52.07835937 33.26117187 -51.46875 33.0234375 C-47.45318036 31.36611431 -44.6539384 30.12399729 -41.57421875 26.97265625 C-39.26171875 24.72265625 -39.26171875 24.72265625 -35.94921875 24.41015625 C-35.06234375 24.51328125 -34.17546875 24.61640625 -33.26171875 24.72265625 C-32.93171875 23.73265625 -32.60171875 22.74265625 -32.26171875 21.72265625 C-31.27171875 21.39265625 -30.28171875 21.06265625 -29.26171875 20.72265625 C-28.93171875 20.06265625 -28.60171875 19.40265625 -28.26171875 18.72265625 C-27.27171875 18.72265625 -26.28171875 18.72265625 -25.26171875 18.72265625 C-24.93171875 17.73265625 -24.60171875 16.74265625 -24.26171875 15.72265625 C-22.94171875 15.72265625 -21.62171875 15.72265625 -20.26171875 15.72265625 C-20.26171875 15.06265625 -20.26171875 14.40265625 -20.26171875 13.72265625 C-18.609375 12.49609375 -18.609375 12.49609375 -16.32421875 11.09765625 C-11.81372993 8.23057897 -8.09799956 4.9159176 -4.3046875 1.1640625 C-2.26171875 -0.27734375 -2.26171875 -0.27734375 0 0 Z " fill="#D3EBFA" transform="translate(954.26171875,725.27734375)"/>
<path d="M0 0 C0.33 1.32 0.66 2.64 1 4 C1.66 4 2.32 4 3 4 C3.13258427 11.95505618 3.13258427 11.95505618 2 16 C2.33 16.33 2.66 16.66 3 17 C3.09605068 19.1792833 3.18511258 21.35908635 3.23999023 23.53979492 C3.52838156 34.56760736 5.02989357 44.92165253 7.48461914 55.66064453 C8.03813351 58.17309108 8.51544016 60.69460049 8.9921875 63.22265625 C11.33479121 75.01562713 17.74774103 88.53326275 24.9375 98.1875 C27 101 27 101 27 104 C27.66 104 28.32 104 29 104 C33 108.47058824 33 108.47058824 33 111 C33.58652344 111.26941406 34.17304687 111.53882813 34.77734375 111.81640625 C36.99709279 112.99845187 38.67839368 114.28100384 40.5625 115.9375 C41.14128906 116.44152344 41.72007813 116.94554687 42.31640625 117.46484375 C45.70131579 120.55131579 45.70131579 120.55131579 47 122 C47 122.66 47 123.32 47 124 C47.72960937 124.26683594 48.45921875 124.53367187 49.2109375 124.80859375 C51.96354259 125.98442646 54.1775238 127.35094877 56.625 129.0625 C59.17156156 130.83987829 61.03197816 132.01065939 64 133 C64 133.66 64 134.32 64 135 C64.928125 135.103125 65.85625 135.20625 66.8125 135.3125 C70 136 70 136 71.25 137.375 C73.82416006 139.76529148 76.91490391 140.60101123 80.1875 141.6875 C81.16879883 142.02491211 81.16879883 142.02491211 82.16992188 142.36914062 C83.77728884 142.92057309 85.38830483 143.46134891 87 144 C87 144.99 87 145.98 87 147 C75.00196678 143.30829747 63.19748124 137.47740512 52.9140625 130.31640625 C50.85178775 128.8589617 50.85178775 128.8589617 47.9375 127.25 C47.298125 126.8375 46.65875 126.425 46 126 C46 125.34 46 124.68 46 124 C45.40703125 123.7215625 44.8140625 123.443125 44.203125 123.15625 C37.6476669 119.71579681 33.23535941 114.04843795 28.796875 108.26953125 C27.28424722 106.3590166 25.73953643 104.69604802 24 103 C19.42728288 97.41112352 16.56745269 91.16015791 13.62890625 84.6171875 C12.73298216 82.62767742 11.82091538 80.64424267 10.83984375 78.6953125 C-0.94552295 54.93372297 -0.56471454 25.78283874 0 0 Z " fill="#D1EBF9" transform="translate(30,386)"/>
<path d="M0 0 C3.7999124 -0.5757443 4.97901464 -0.0148132 8.1875 2.25 C8.78175781 2.70632813 9.37601563 3.16265625 9.98828125 3.6328125 C16.13999295 7.81358744 23.96532747 9.75706093 31 12 C31 12.66 31 13.32 31 14 C32.5159375 14.1546875 32.5159375 14.1546875 34.0625 14.3125 C38 15 38 15 41.14453125 16.4140625 C45.50256679 18.34253522 49.95857966 19.1905552 54.625 20.0625 C55.49930664 20.23168945 56.37361328 20.40087891 57.27441406 20.57519531 C64.15810948 21.88914821 71.05790666 23.03722793 78 24 C78 24.66 78 25.32 78 26 C79.04800781 25.98839844 80.09601563 25.97679687 81.17578125 25.96484375 C82.55468572 25.95546345 83.93359211 25.9463635 85.3125 25.9375 C86.00279297 25.92912109 86.69308594 25.92074219 87.40429688 25.91210938 C90.5483025 25.89692094 92.99420019 25.99806673 96 27 C105.1060828 28.12139723 114.33689185 28.38456769 123.5 28.6875 C124.21934723 28.71156921 124.93869446 28.73563843 125.67984009 28.76043701 C137.72030954 29.13388455 149.66424737 28.83244092 161.6875 28.125 C162.4594873 28.07975189 163.23147461 28.03450378 164.02685547 27.98788452 C171.06296195 27.56374944 178.0200037 27.0157418 185 26 C186.97828849 25.93747508 188.95837451 25.91306635 190.9375 25.9375 C191.89527344 25.94652344 192.85304688 25.95554687 193.83984375 25.96484375 C194.55269531 25.97644531 195.26554688 25.98804688 196 26 C195.67 26.66 195.34 27.32 195 28 C192.31350523 28.46708375 189.7086607 28.80292002 187 29.0625 C186.2884375 29.14048828 185.576875 29.21847656 184.84375 29.29882812 C169.5047783 30.88788256 154.15822872 31.20699818 138.75 31.1875 C137.787453 31.18656342 136.82490601 31.18562683 135.83319092 31.18466187 C100.11365479 31.10972164 59.52033761 30.52242959 27 14 C25.56850893 13.51446202 24.13026327 13.04859744 22.6875 12.59765625 C17.83583705 11.03572198 13.47483108 8.85643426 9 6.4375 C8.23816406 6.03853516 7.47632813 5.63957031 6.69140625 5.22851562 C1.12963051 2.25926102 1.12963051 2.25926102 0 0 Z " fill="#D4EBFB" transform="translate(578,775)"/>
<path d="M0 0 C0.66 0 1.32 0 2 0 C2.45947234 1.66635302 2.91750895 3.33310193 3.375 5 C3.78685547 6.49853516 3.78685547 6.49853516 4.20703125 8.02734375 C4.87501063 10.5314438 5.48122321 13.03743362 6.0625 15.5625 C6.70412548 19.03488477 6.70412548 19.03488477 9 21 C9.226875 21.969375 9.45375 22.93875 9.6875 23.9375 C11.17479477 29.5915809 14.74846302 34.22452453 18 39 C18.48339844 39.7115625 18.96679688 40.423125 19.46484375 41.15625 C21.06192918 43.44750934 22.61316132 45.63158221 24.640625 47.5625 C26 49 26 49 26 51 C27.32 51.66 28.64 52.32 30 53 C30 53.99 30 54.98 30 56 C30.763125 56.28875 31.52625 56.5775 32.3125 56.875 C35 58 35 58 38 60 C38 60.66 38 61.32 38 62 C38.598125 62.103125 39.19625 62.20625 39.8125 62.3125 C42.30869017 63.09701691 43.25731865 64.09889308 45 66 C45.99 66.495 45.99 66.495 47 67 C47 67.66 47 68.32 47 69 C47.61488281 69.18175781 48.22976562 69.36351562 48.86328125 69.55078125 C49.67152344 69.80214844 50.47976562 70.05351563 51.3125 70.3125 C52.11300781 70.55613281 52.91351563 70.79976562 53.73828125 71.05078125 C56 72 56 72 57.41015625 73.44921875 C59.68715052 75.67026721 62.15410707 76.40435154 65.125 77.5 C66.28644531 77.93183594 67.44789062 78.36367188 68.64453125 78.80859375 C71.35650415 79.77151777 74.07157985 80.6871276 76.8125 81.5625 C80.52470466 82.75204625 83.86010146 84.35524092 87.2734375 86.23046875 C89.14164414 87.20354846 89.14164414 87.20354846 92 87 C92 87.66 92 88.32 92 89 C92.59167969 89.06058594 93.18335937 89.12117187 93.79296875 89.18359375 C97.90978208 89.62012371 101.95544533 90.08671346 106 91 C106 91.66 106 92.32 106 93 C107.42892578 93.07347656 107.42892578 93.07347656 108.88671875 93.1484375 C110.14097656 93.22320313 111.39523438 93.29796875 112.6875 93.375 C113.92886719 93.44460938 115.17023438 93.51421875 116.44921875 93.5859375 C119.69317772 93.96422094 122.06567185 94.61979976 125 96 C125 96.33 125 96.66 125 97 C119.23811429 97.18732588 114.31844578 96.61938606 108.75 95.1875 C108.01418701 95.00517822 107.27837402 94.82285645 106.52026367 94.63500977 C105.03979276 94.26743013 103.56019206 93.89632537 102.08154297 93.52148438 C100.20637389 93.0517024 98.32421732 92.61002642 96.44140625 92.171875 C91.19504298 90.94051883 86.79366003 89.50104001 82 87 C80.47319467 86.52985249 78.93818866 86.08599607 77.3984375 85.66015625 C72.29367406 84.156363 67.55048967 82.22287165 62.75 79.9375 C61.52120117 79.35258789 61.52120117 79.35258789 60.26757812 78.75585938 C52.53495007 74.95896395 45.74968522 70.31767742 39 65 C37.99066406 64.22398437 36.98132813 63.44796875 35.94140625 62.6484375 C30.31772485 58.20748421 25.47117753 53.5916916 21 48 C20.43925781 47.33742188 19.87851562 46.67484375 19.30078125 45.9921875 C8.64374 33.01215075 0.44172106 17.06649554 0 0 Z " fill="#D7EDFB" transform="translate(32,708)"/>
<path d="M0 0 C0.81431488 -0.00394775 1.62862976 -0.00789551 2.46762085 -0.01196289 C19.10849229 -0.04856903 35.59252081 1.21251744 52.16638184 2.59811401 C71.14620251 4.17737731 89.89910916 4.84253337 108.9375 4.3125 C108.6075 4.9725 108.2775 5.6325 107.9375 6.3125 C102.01912733 6.33762863 96.10078718 6.35555777 90.18237305 6.36743164 C88.17813576 6.37239302 86.17390195 6.37916425 84.16967773 6.38793945 C68.19266688 6.456029 52.3166579 6.12809578 36.41186523 4.51245117 C10.6270511 1.97015316 -16.1955774 1.71540332 -41.796875 5.94873047 C-45.20843748 6.49649212 -48.63180565 6.90351676 -52.0625 7.3125 C-52.0625 7.9725 -52.0625 8.6325 -52.0625 9.3125 C-53.00351563 9.56644531 -53.94453125 9.82039062 -54.9140625 10.08203125 C-56.78191406 10.59830078 -56.78191406 10.59830078 -58.6875 11.125 C-59.91726562 11.46144531 -61.14703125 11.79789063 -62.4140625 12.14453125 C-66.0723614 13.21293837 -66.0723614 13.21293837 -69.3359375 14.94921875 C-72.0625 16.3125 -72.0625 16.3125 -75.0625 16.3125 C-75.3925 17.3025 -75.7225 18.2925 -76.0625 19.3125 C-78.125 20 -78.125 20 -80.0625 20.3125 C-80.3925 19.6525 -80.7225 18.9925 -81.0625 18.3125 C-68.91409878 10.71701311 -57.57346976 6.41985174 -43.625 3.5625 C-42.60124268 3.35157715 -41.57748535 3.1406543 -40.52270508 2.92333984 C-27.13196677 0.33664941 -13.59882928 0.04902561 0 0 Z " fill="#DFF3FA" transform="translate(138.0625,598.6875)"/>
<path d="M0 0 C0.99 0.66 1.98 1.32 3 2 C1.8803014 3.00593243 0.7540588 4.0045849 -0.375 5 C-1.00148438 5.556875 -1.62796875 6.11375 -2.2734375 6.6875 C-4 8 -4 8 -6 8 C-6.25740967 8.59997803 -6.51481934 9.19995605 -6.7800293 9.81811523 C-8.11708704 12.20940703 -9.3275684 13.29521813 -11.51953125 14.91015625 C-12.21240234 15.42513672 -12.90527344 15.94011719 -13.61914062 16.47070312 C-14.34294922 16.99599609 -15.06675781 17.52128906 -15.8125 18.0625 C-16.88081055 18.85624023 -16.88081055 18.85624023 -17.97070312 19.66601562 C-21.55253365 22.30682869 -25.14385439 24.77086599 -29 27 C-29.91394531 27.58136719 -30.82789063 28.16273438 -31.76953125 28.76171875 C-48.90329525 39.60503794 -67.43078125 47.68941794 -86.5 54.5 C-87.21212646 54.75539551 -87.92425293 55.01079102 -88.65795898 55.27392578 C-91.57138486 56.28695083 -93.89185056 57 -97 57 C-97 56.34 -97 55.68 -97 55 C-93.69769782 53.13716287 -90.92576516 51.98539643 -87.1875 51.25 C-81.57926983 50.13597126 -76.49493098 47.83458789 -71.2565918 45.60961914 C-67.37554084 43.96469613 -63.53028018 42.44050377 -59.5 41.1875 C-55.92256283 40.43122183 -55.92256283 40.43122183 -55 38 C-52.4375 37.375 -52.4375 37.375 -50 37 C-50 36.34 -50 35.68 -50 35 C-47.69 34.67 -45.38 34.34 -43 34 C-43 33.34 -43 32.68 -43 32 C-42.34 32 -41.68 32 -41 32 C-41 31.34 -41 30.68 -41 30 C-40.13632812 29.57460938 -39.27265625 29.14921875 -38.3828125 28.7109375 C-35.16747304 27.08470345 -32.01166567 25.39789799 -28.875 23.625 C-27.86179687 23.06039063 -26.84859375 22.49578125 -25.8046875 21.9140625 C-22.87283084 20.11408932 -22.87283084 20.11408932 -20.8203125 17.2734375 C-20.21960938 16.52320313 -19.61890625 15.77296875 -19 15 C-18.01 15 -17.02 15 -16 15 C-16 14.34 -16 13.68 -16 13 C-13.525 12.505 -13.525 12.505 -11 12 C-11 11.01 -11 10.02 -11 9 C-10.01 8.67 -9.02 8.34 -8 8 C-6.31267723 6.01739574 -4.64633943 4.0167658 -3 2 C-2.01 1.34 -1.02 0.68 0 0 Z " fill="#D1EAF9" transform="translate(989,413)"/>
<path d="M0 0 C4.99236996 0.99847399 9.82736597 2.22759217 14.6953125 3.72583008 C25.01241949 6.88925115 35.40024566 9.02228343 46 11 C65.66008935 14.69936149 85.19688068 18.64685076 104.5625 23.6875 C105.34230225 23.88988281 106.12210449 24.09226562 106.92553711 24.30078125 C110.73383883 25.31351523 114.37479206 26.42788012 118 28 C117.34 28.66 116.68 29.32 116 30 C113.69 29.34 111.38 28.68 109 28 C109 27.34 109 26.68 109 26 C108.46375 25.96261719 107.9275 25.92523438 107.375 25.88671875 C99.135496 25.19557614 91.10118552 23.59812469 83 22 C83 21.34 83 20.68 83 20 C82.44127197 19.95464111 81.88254395 19.90928223 81.30688477 19.86254883 C73.7808554 19.18675755 66.37917313 17.98235988 58.9375 16.6875 C57.65705811 16.46602295 56.37661621 16.2445459 55.05737305 16.01635742 C46.76746245 14.55583648 38.57732926 12.88698855 30.4140625 10.83984375 C26.62447157 9.90762172 22.82463537 9.1589633 18.98046875 8.4921875 C17 8 17 8 15.125 7.03515625 C11.49566795 5.26719119 7.51358917 4.71085623 3.58203125 3.87890625 C2.72996094 3.58886719 1.87789062 3.29882812 1 3 C0.67 2.01 0.34 1.02 0 0 Z " fill="#D3E9F9" transform="translate(227,435)"/>
<path d="M0 0 C9.65114164 0.37847614 19.27061353 0.78274189 28.87963867 1.78637695 C40.34765135 2.96667747 51.73237065 3.19305204 63.25 3.1875 C64.46407028 3.1887236 64.46407028 3.1887236 65.70266724 3.18997192 C68.01541092 3.18970737 70.32792055 3.18090798 72.640625 3.16796875 C73.33959396 3.16677032 74.03856293 3.1655719 74.75871277 3.16433716 C77.78135593 3.1349379 80.10801834 2.96399389 83 2 C84.59329918 1.86386257 86.19097555 1.77579203 87.7890625 1.71875 C88.73136719 1.68136719 89.67367187 1.64398437 90.64453125 1.60546875 C91.62808594 1.57066406 92.61164063 1.53585937 93.625 1.5 C99.80404404 1.27606149 105.90422526 0.95047335 112.04394531 0.20947266 C114.55776433 -0.05973063 117.03589197 -0.09808603 119.5625 -0.0625 C120.40941406 -0.05347656 121.25632812 -0.04445313 122.12890625 -0.03515625 C122.74636719 -0.02355469 123.36382812 -0.01195312 124 0 C109.71349786 9.52433476 81.78386369 5.42943521 64.79577637 5.3225708 C61.89022697 5.3090912 58.98482943 5.31441721 56.07926273 5.31944275 C37.17967197 5.34403868 18.56738447 4.92209919 0 1 C0 0.67 0 0.34 0 0 Z " fill="#D1ECFB" transform="translate(157,805)"/>
<path d="M0 0 C11.81908198 0.5193233 23.33147974 2.11068429 35 4 C36.74736961 4.27620759 38.49476525 4.55225063 40.2421875 4.828125 C41.89076077 5.09290602 43.53920404 5.35849811 45.1875 5.625 C45.96005127 5.74794434 46.73260254 5.87088867 47.52856445 5.99755859 C52.88365753 6.88365753 52.88365753 6.88365753 54 8 C55.45411459 8.16706848 56.91436533 8.28062053 58.375 8.375 C63.95579916 8.83883951 69.46667556 9.59226191 75 10.4375 C76.25562744 10.62094971 76.25562744 10.62094971 77.53662109 10.80810547 C78.72505615 10.99397217 78.72505615 10.99397217 79.9375 11.18359375 C80.64777344 11.29243896 81.35804688 11.40128418 82.08984375 11.51342773 C84 12 84 12 87 14 C88.66665762 14.00549146 90.33334069 14.00495293 92 14 C94.53515625 14.8046875 94.53515625 14.8046875 97.0625 15.875 C97.89910156 16.22304688 98.73570312 16.57109375 99.59765625 16.9296875 C101.76596509 17.89573079 103.88800552 18.91717604 106 20 C105.505 21.485 105.505 21.485 105 23 C103.96875 22.41476562 102.9375 21.82953125 101.875 21.2265625 C95.88438852 18.23915299 89.48754312 16.88793993 83 15.375 C82.35316254 15.22148071 81.70632507 15.06796143 81.03988647 14.90979004 C72.61511349 12.91369111 64.30030455 11.24288724 55.67578125 10.390625 C51.41203429 9.93751693 47.22224196 9.23660855 43 8.5 C37.3410152 7.51795182 31.70812966 6.70239946 26 6.0625 C17.18458691 5.0227789 8.62683881 3.05686203 0 1 C0 0.67 0 0.34 0 0 Z " fill="#D2EAFB" transform="translate(162,545)"/>
<path d="M0 0 C0.99 0.33 1.98 0.66 3 1 C4.0335393 3.87061061 4.86977269 6.61851207 5.625 9.5625 C5.94984375 10.74295898 5.94984375 10.74295898 6.28125 11.94726562 C8.88744477 21.70440839 9.20858528 31.06122286 9.25 41.125 C9.270625 42.35476563 9.29125 43.58453125 9.3125 44.8515625 C9.38291588 61.61054249 5.28534188 78.8597508 -4 93 C-4.99 93.495 -4.99 93.495 -6 94 C-5.43174347 88.45949887 -3.37113483 83.96284034 -1 79 C-0.34 79 0.32 79 1 79 C1.66 74.71 2.32 70.42 3 66 C3.66 66 4.32 66 5 66 C5.99287043 58.54155731 6.18331549 51.20706739 6.1875 43.6875 C6.20586914 41.96756836 6.20586914 41.96756836 6.22460938 40.21289062 C6.24163062 30.18737789 4.78189206 20.79602305 2.4375 11.0625 C1.55786785 7.38445261 0.71802972 3.71323939 0 0 Z " fill="#D5ECFB" transform="translate(472,258)"/>
<path d="M0 0 C-10.30649887 10.30649887 -36.01141971 10.29811493 -50 11 C-51.38084408 11.08445693 -52.76161684 11.1700845 -54.14233398 11.2565918 C-66.16687348 11.98532027 -78.14368713 12.1209919 -90.1875 12.0625 C-92.02799355 12.05746467 -93.86848846 12.05290543 -95.70898438 12.04882812 C-100.13935782 12.03800712 -104.56966293 12.02085997 -109 12 C-105.91367136 8.91367136 -102.21291318 9.6611667 -98.06640625 9.62109375 C-97.15986801 9.60409927 -96.25332977 9.5871048 -95.31932068 9.56959534 C-92.40045278 9.51636831 -89.48159259 9.47627992 -86.5625 9.4375 C-82.77204671 9.37844057 -78.98171423 9.31381323 -75.19140625 9.24609375 C-73.78967918 9.221735 -73.78967918 9.221735 -72.3596344 9.19688416 C-48.35057318 8.731862 -23.05446811 -0.62309373 0 0 Z " fill="#CBE8FD" transform="translate(426,385)"/>
<path d="M0 0 C0 3 0 3 -2.1875 5.5 C-4.73494309 7.76439386 -7.07110788 9.2972565 -10 11 C-10.83660156 11.50660156 -11.67320312 12.01320313 -12.53515625 12.53515625 C-13.36917969 13.03917969 -14.20320312 13.54320312 -15.0625 14.0625 C-15.89910156 14.56910156 -16.73570312 15.07570313 -17.59765625 15.59765625 C-18.39042969 16.06042969 -19.18320312 16.52320313 -20 17 C-20.66515625 17.38929688 -21.3303125 17.77859375 -22.015625 18.1796875 C-24.38890226 19.16076668 -26.1323272 19.16808565 -28.6875 19.0625 C-30.12413346 19.00842051 -31.56249394 18.97958916 -33 19 C-33.495 19.495 -33.495 19.495 -34 20 C-44.64012177 22.02891191 -55.14804675 22.2558411 -65.9375 22.125 C-67.41080107 22.11493003 -68.88410896 22.10581142 -70.35742188 22.09765625 C-73.90509384 22.07600687 -77.45250022 22.04170887 -81 22 C-81 21.34 -81 20.68 -81 20 C-76.14683578 18.91595988 -71.53521262 18.97185666 -66.59936523 19.06591797 C-44.21871998 19.47601232 -18.41489304 17.67605285 -1.20703125 1.29296875 C-0.80871094 0.86628906 -0.41039062 0.43960937 0 0 Z " fill="#D1E9FB" transform="translate(839,403)"/>
<path d="M0 0 C0.33 0 0.66 0 1 0 C1.2969746 6.13747511 0.66041709 10.82098783 -1.2734375 16.640625 C-2.22024017 19.71518852 -2.55477989 22.81985639 -3 26 C-3.32218506 26.62076416 -3.64437012 27.24152832 -3.97631836 27.88110352 C-5.1507644 30.31206397 -5.48129382 32.35214939 -5.81640625 35.02734375 C-5.94080078 35.98447266 -6.06519531 36.94160156 -6.19335938 37.92773438 C-6.37608398 39.41756836 -6.37608398 39.41756836 -6.5625 40.9375 C-6.81245813 42.90511911 -7.0637172 44.87257349 -7.31640625 46.83984375 C-7.42412354 47.70988037 -7.53184082 48.57991699 -7.64282227 49.47631836 C-7.88853398 51.21242364 -8.19067067 52.94117183 -8.53881836 54.65966797 C-9.04627207 57.2348142 -9.0634335 59.56690351 -9 62.1875 C-8.88984263 66.77968526 -8.88984263 66.77968526 -10 69 C-11.32 68.67 -12.64 68.34 -14 68 C-13.56576273 60.66288753 -12.37463 53.71484999 -10.75390625 46.55078125 C-10.03066615 43.14443281 -9.48661401 39.75969002 -9 36.3125 C-8.27735407 31.3674518 -7.18296948 26.69653896 -5.7890625 21.90234375 C-4.55666496 17.36931717 -3.66606891 12.7691359 -2.74609375 8.1640625 C-2.06600922 5.27993439 -1.18275195 2.71068474 0 0 Z " fill="#CDE4FA" transform="translate(544,362)"/>
<path d="M0 0 C0.99 0 1.98 0 3 0 C-1.52941176 12.76470588 -1.52941176 12.76470588 -6 15 C-6.67939174 16.99571323 -7.34561559 18.99594773 -8 21 C-8.66 21.66 -9.32 22.32 -10 23 C-10.6425235 25.06874034 -10.6425235 25.06874034 -11 27 C-11.66 27 -12.32 27 -13 27 C-13 28.98 -13 30.96 -13 33 C-14.485 33.495 -14.485 33.495 -16 34 C-15.87625 34.9590625 -15.87625 34.9590625 -15.75 35.9375 C-15.99766787 38.97143143 -16.59498925 40.5430143 -17.875 43.25 C-19.99974717 47.75476433 -21.10328527 52.11998406 -22 57 C-22.20625 58.010625 -22.4125 59.02125 -22.625 60.0625 C-22.810625 61.0215625 -22.810625 61.0215625 -23 62 C-24.32 61.67 -25.64 61.34 -27 61 C-21.59308776 42.03524083 -15.0322163 25.01492288 -5 8 C-4.34862061 6.8550708 -4.34862061 6.8550708 -3.68408203 5.68701172 C-3.25337402 4.95369629 -2.82266602 4.22038086 -2.37890625 3.46484375 C-1.99420166 2.79960693 -1.60949707 2.13437012 -1.21313477 1.44897461 C-0.81280029 0.97081299 -0.41246582 0.49265137 0 0 Z " fill="#D3EBFA" transform="translate(60,300)"/>
<path d="M0 0 C-4.9018958 3.92556958 -10.54896408 6.30910216 -16.1875 9 C-17.28642578 9.53367187 -18.38535156 10.06734375 -19.51757812 10.6171875 C-25.58312502 13.52517778 -31.55578615 16.07539351 -38 18 C-39.35440413 18.42632967 -40.708575 18.85340117 -42.0625 19.28125 C-44.07851769 19.90687602 -46.09546098 20.52944474 -48.11254883 21.15161133 C-51.66955659 22.25408057 -55.18877121 23.41347122 -58.6875 24.6875 C-64.28073973 26.60269493 -70.16011778 27.23278209 -76 28 C-73.73840276 25.37339814 -72.14262624 24.54840997 -68.75 23.9375 C-51.33302855 20.69497872 -33.70716732 14.13406879 -18 6 C-15.66666667 5 -13.33333333 4 -11 3 C-8.92237903 1.90732527 -6.8520146 0.80631206 -4.796875 -0.328125 C-3 -1 -3 -1 0 0 Z " fill="#D2EDFA" transform="translate(383,773)"/>
<path d="M0 0 C1 3 1 3 -0.046875 5.35546875 C-9.26178466 20.67842633 -19.22781217 35.39642191 -32 48 C-32.825 48.886875 -33.65 49.77375 -34.5 50.6875 C-36.96992246 52.97217828 -38.82133822 54.00099201 -42 55 C-42 54.01 -42 53.02 -42 52 C-41.21625 51.7525 -40.4325 51.505 -39.625 51.25 C-36.57704392 49.79859234 -36.27463336 49.00449293 -35 46 C-33.5 44.25 -33.5 44.25 -32 43 C-31.34 43 -30.68 43 -30 43 C-30 42.01 -30 41.02 -30 40 C-29.34 40 -28.68 40 -28 40 C-27.34 38.68 -26.68 37.36 -26 36 C-25.34 36 -24.68 36 -24 36 C-24 35.34 -24 34.68 -24 34 C-23.34 34 -22.68 34 -22 34 C-21.67 32.68 -21.34 31.36 -21 30 C-20.34 30 -19.68 30 -19 30 C-19 29.34 -19 28.68 -19 28 C-18.34 28 -17.68 28 -17 28 C-16.731875 27.278125 -16.46375 26.55625 -16.1875 25.8125 C-15.00098638 23.00233617 -13.72514361 20.51583443 -12 18 C-11.34 18 -10.68 18 -10 18 C-9.896875 17.443125 -9.79375 16.88625 -9.6875 16.3125 C-8.85269994 13.50453615 -7.57664414 11.47758365 -6 9 C-5.57976562 8.319375 -5.15953125 7.63875 -4.7265625 6.9375 C-1.15186916 1.15186916 -1.15186916 1.15186916 0 0 Z " fill="#D0ECFA" transform="translate(463,691)"/>
<path d="M0 0 C11.94170426 17.91255639 8.86550944 50.39329567 7 71 C6.01 70.67 5.02 70.34 4 70 C4.00523682 68.94087402 4.01047363 67.88174805 4.01586914 66.79052734 C4.03403406 62.84327039 4.04547389 58.8960171 4.05493164 54.94873047 C4.05994564 53.24364601 4.0667585 51.53856582 4.07543945 49.83349609 C4.08763385 47.37596581 4.09325775 44.91849262 4.09765625 42.4609375 C4.10281754 41.70444916 4.10797882 40.94796082 4.11329651 40.16854858 C4.11373433 35.99330815 3.72237388 32.1044142 3 28 C3.4375 25.125 3.4375 25.125 4 23 C3.34 22.67 2.68 22.34 2 22 C0.41142696 14.77297327 -0.29556866 7.38921642 0 0 Z " fill="#CFE6F7" transform="translate(473,570)"/>
<path d="M0 0 C2.08962236 3.13443354 2.25367554 3.87003692 2.1875 7.4375 C2.18105469 8.19933594 2.17460938 8.96117187 2.16796875 9.74609375 C2 12 2 12 1.51954651 13.81414795 C0.92889954 16.29913604 0.71095517 18.68020866 0.51928711 21.22753906 C0.43927963 22.26831604 0.35927216 23.30909302 0.27684021 24.38140869 C0.15333946 26.05659576 0.15333946 26.05659576 0.02734375 27.765625 C-0.06002548 28.91415955 -0.14739471 30.06269409 -0.2374115 31.24603271 C-0.51567173 34.91378593 -0.78914286 38.58187842 -1.0625 42.25 C-1.25033571 44.737003 -1.43848294 47.2239825 -1.62695312 49.7109375 C-2.08825037 55.80702352 -2.54561632 61.90339498 -3 68 C-3.66 67.67 -4.32 67.34 -5 67 C-4.68120625 51.45836441 -3.98784043 36.03514489 -2.5 20.5625 C-2.43428802 19.87414062 -2.36857605 19.18578125 -2.3008728 18.4765625 C-1.70339423 12.28051586 -1.07781906 6.13327617 0 0 Z " fill="#CFE6F7" transform="translate(523,486)"/>
<path d="M0 0 C18.74860992 1.74896039 37.32641805 2.07097006 56.1434021 1.71743774 C55.8134021 2.37743774 55.4834021 3.03743774 55.1434021 3.71743774 C49.22502943 3.74256638 43.30668928 3.76049551 37.38827515 3.77236938 C35.38403786 3.77733076 33.37980405 3.78410199 31.37557983 3.7928772 C13.6535593 3.86840348 -3.88409287 3.14221203 -21.5440979 1.65493774 C-22.65075806 1.56405884 -23.75741821 1.47317993 -24.89761353 1.37954712 C-27.55082374 1.16131771 -30.20380252 0.94064294 -32.8565979 0.71743774 C-32.8565979 0.38743774 -32.8565979 0.05743774 -32.8565979 -0.28256226 C-22.12599529 -2.73918636 -10.84140181 -1.02469646 0 0 Z " fill="#D3E9FA" transform="translate(190.85659790039063,601.2825622558594)"/>
<path d="M0 0 C0.66 0 1.32 0 2 0 C5.37116644 10.11349933 -3.82992812 26.88871204 -8.3125 35.875 C-9.20011107 37.58761984 -10.09273554 39.29770997 -11 41 C-11.66 41 -12.32 41 -13 41 C-13.2475 41.70511719 -13.495 42.41023438 -13.75 43.13671875 C-15.16103659 46.36887443 -16.9250726 48.96328902 -19 51.8125 C-19.70125 52.78832031 -20.4025 53.76414062 -21.125 54.76953125 C-21.74375 55.50558594 -22.3625 56.24164063 -23 57 C-23.66 57 -24.32 57 -25 57 C-24.38722388 54.03824877 -23.74627478 52.61941217 -22 50 C-21.34 50 -20.68 50 -20 50 C-19.71125 49.2575 -19.4225 48.515 -19.125 47.75 C-16.58213763 41.5341142 -16.58213763 41.5341142 -14.05859375 39.21875 C-11.74202885 36.72195899 -10.9703313 34.78618557 -9.9375 31.5625 C-9.0092767 28.69815429 -8.16960137 26.2658 -6.546875 23.72265625 C-4.40458765 19.95201412 -3.42112736 16.0482619 -2.3125 11.875 C-2.08755859 11.06417969 -1.86261719 10.25335938 -1.63085938 9.41796875 C-0.74159131 6.14740839 0 3.40862096 0 0 Z " fill="#D1EBFB" transform="translate(1019,353)"/>
<path d="M0 0 C0.99 0.33 1.98 0.66 3 1 C4.93581737 1.13178787 6.87393717 1.23045683 8.8125 1.3125 C19.01289746 1.9560582 28.98383638 4.04220871 39 6 C39.495 7.485 39.495 7.485 40 9 C39.40574219 8.88406494 38.81148437 8.76812988 38.19921875 8.64868164 C35.46667234 8.11720561 32.7333497 7.58982848 30 7.0625 C29.06542969 6.88009766 28.13085938 6.69769531 27.16796875 6.50976562 C10.66431443 3.33598595 -6.76827178 1.87887352 -23.16015625 6.34375 C-26.19322906 7.04465266 -28.89776151 7.1106296 -32 7 C-28.6097727 2.85638885 -24.03041816 2.04782589 -18.9375 1.375 C-13.83571683 0.86918218 -8.74575056 0.96767129 -3.625 1.0625 C-1.07381141 1.30383652 -1.07381141 1.30383652 0 0 Z " fill="#D0E8FB" transform="translate(768,549)"/>
<path d="M0 0 C-0.33 0.66 -0.66 1.32 -1 2 C-1.87398438 2.02187378 -1.87398438 2.02187378 -2.765625 2.04418945 C-28.7411343 1.87573377 -28.7411343 1.87573377 -51.78125 11.58984375 C-53.34274518 13.36608905 -53.34274518 13.36608905 -55 16 C-55.33 14.68 -55.66 13.36 -56 12 C-55.01 11.67 -54.02 11.34 -53 11 C-53 10.34 -53 9.68 -53 9 C-52.34 9 -51.68 9 -51 9 C-50.67 8.01 -50.34 7.02 -50 6 C-47.8125 4.9375 -47.8125 4.9375 -45 4 C-44.1646875 3.67386719 -43.329375 3.34773438 -42.46875 3.01171875 C-37.89727715 1.6783725 -33.42109369 1.27376494 -28.6875 0.875 C-27.24383057 0.74762451 -27.24383057 0.74762451 -25.77099609 0.61767578 C-17.16752928 -0.08897155 -8.62532533 -0.20590962 0 0 Z " fill="#CFE9FA" transform="translate(266,393)"/>
<path d="M0 0 C11.23025282 5.04055533 21.98795396 16.41681152 28 27 C28.52980469 27.85980469 29.05960937 28.71960938 29.60546875 29.60546875 C30.12753906 30.45753906 30.64960938 31.30960938 31.1875 32.1875 C31.71730469 33.04730469 32.24710937 33.90710938 32.79296875 34.79296875 C34 37 34 37 34 39 C29.92904148 37.64301383 28.80790258 34.93690566 26.6875 31.4375 C23.67020107 26.57969193 20.57991458 21.92076072 16.99609375 17.453125 C16 16 16 16 16 14 C15.34 14 14.68 14 14 14 C14 13.34 14 12.68 14 12 C13.01 12 12.02 12 11 12 C11 11.34 11 10.68 11 10 C10.21625 9.690625 9.4325 9.38125 8.625 9.0625 C6 8 6 8 4 7 C4 6.34 4 5.68 4 5 C3.01 4.67 2.02 4.34 1 4 C0.3125 1.9375 0.3125 1.9375 0 0 Z " fill="#D5EBFC" transform="translate(439,217)"/>
<path d="M0 0 C1.7074998 1.28062485 3.37373596 2.61767557 5 4 C5 4.66 5 5.32 5 6 C5.515625 6.226875 6.03125 6.45375 6.5625 6.6875 C9 8 9 8 11.875 10.3125 C21.76488093 17.43656677 35.29283627 19.46297541 47 22 C47 22.33 47 22.66 47 23 C35.99867266 23.56903417 25.60444309 21.41341338 16 16 C14.34302621 15.30959426 12.68076231 14.63028587 11 14 C11 13.34 11 12.68 11 12 C8.525 11.01 8.525 11.01 6 10 C6 9.34 6 8.68 6 8 C5.34 8 4.68 8 4 8 C4 7.34 4 6.68 4 6 C3.01 5.67 2.02 5.34 1 5 C0.67 3.35 0.34 1.7 0 0 Z " fill="#D1E6F9" transform="translate(702,637)"/>
<path d="M0 0 C1.32 0.66 2.64 1.32 4 2 C2.948125 2.556875 1.89625 3.11375 0.8125 3.6875 C-8.0582497 8.81757212 -13.37125564 17.06065854 -16.375 26.6875 C-18.83677949 36.65668968 -18.36338201 46.80154404 -18 57 C-20.86669347 54.13330653 -20.54835262 51.1090846 -20.75 47.25 C-20.79310303 46.49662354 -20.83620605 45.74324707 -20.88061523 44.96704102 C-21.18886349 37.79744293 -20.35237524 31.05246921 -19 24 C-18.34 24 -17.68 24 -17 24 C-16.81824219 23.31292969 -16.63648438 22.62585938 -16.44921875 21.91796875 C-16.19785156 21.01691406 -15.94648437 20.11585938 -15.6875 19.1875 C-15.44386719 18.29417969 -15.20023438 17.40085937 -14.94921875 16.48046875 C-13.96241923 13.90179511 -12.97745752 12.85022164 -11 11 C-10.67 10.01 -10.34 9.02 -10 8 C-8.66666667 7.66666667 -7.33333333 7.33333333 -6 7 C-5.67 6.01 -5.34 5.02 -5 4 C-3.37667033 2.61423077 -1.71275535 1.27358732 0 0 Z " fill="#CFE4F7" transform="translate(733,335)"/>
<path d="M0 0 C0.99 0.33 1.98 0.66 3 1 C3.309375 1.969375 3.61875 2.93875 3.9375 3.9375 C4.62406986 7.07077545 4.62406986 7.07077545 6.76953125 7.87890625 C9.77849987 9.39129503 11.51916356 11.49213158 13.75 14 C14.54921875 14.886875 15.3484375 15.77375 16.171875 16.6875 C18 19 18 19 18 21 C18.66 21 19.32 21 20 21 C20 21.66 20 22.32 20 23 C20.598125 23.2475 21.19625 23.495 21.8125 23.75 C24 25 24 25 25.4375 27 C27.35379107 29.45285257 29.0813384 30.05340705 32 31 C31.67 31.99 31.34 32.98 31 34 C18.22556702 26.90309279 6.92341576 14.81476954 0 2 C0 1.34 0 0.68 0 0 Z " fill="#D2EAFC" transform="translate(545,740)"/>
<path d="M0 0 C3 1 3 1 3.94921875 2.75 C5.71879652 8.14299891 7.02186385 13.31931601 6 19 C4.125 22.0625 4.125 22.0625 2 24 C1.34 24 0.68 24 0 24 C0 24.66 0 25.32 0 26 C-0.66 26 -1.32 26 -2 26 C-2 26.66 -2 27.32 -2 28 C-3.8125 29.0625 -3.8125 29.0625 -6 30 C-6.99 29.67 -7.98 29.34 -9 29 C-7.9275 28.278125 -6.855 27.55625 -5.75 26.8125 C-1.60216517 23.84856135 1.36016983 20.91949052 3 16 C3.3597466 10.42392771 3.21982958 7.69558481 0 3 C0 2.01 0 1.02 0 0 Z M-9 31 C-12.37107296 33.9665442 -15.60901181 35.13748446 -20 36 C-22.4375 35.125 -22.4375 35.125 -24 34 C-24 33.67 -24 33.34 -24 33 C-22.06524329 32.46906676 -20.12706845 31.95057683 -18.1875 31.4375 C-17.10855469 31.14746094 -16.02960938 30.85742188 -14.91796875 30.55859375 C-12 30 -12 30 -9 31 Z " fill="#D2E9FA" transform="translate(271,569)"/>
<path d="M0 0 C0 6.07195211 -6.82591085 10.81707309 -10.921875 14.9296875 C-18.35398175 21.82185487 -27.13290146 27.5487788 -37 30 C-37 29.34 -37 28.68 -37 28 C-35.35546875 26.7109375 -35.35546875 26.7109375 -33.1875 25.375 C-32.47980469 24.92898438 -31.77210938 24.48296875 -31.04296875 24.0234375 C-29 23 -29 23 -26 23 C-26 22.34 -26 21.68 -26 21 C-24.4221875 20.1028125 -24.4221875 20.1028125 -22.8125 19.1875 C-22.17699219 18.82269531 -21.54148437 18.45789063 -20.88671875 18.08203125 C-19.30289298 17.17370881 -17.71447556 16.27339923 -16.125 15.375 C-13.87576453 14.17484992 -13.87576453 14.17484992 -13 12 C-12.01 11.67 -11.02 11.34 -10 11 C-9.835 10.34 -9.67 9.68 -9.5 9 C-9.335 8.34 -9.17 7.68 -9 7 C-8.01 6.67 -7.02 6.34 -6 6 C-5.690625 5.360625 -5.38125 4.72125 -5.0625 4.0625 C-3.7657662 1.54531085 -2.5778263 1.03113052 0 0 Z " fill="#D1E9F9" transform="translate(463,355)"/>
<path d="M0 0 C5.5824415 0.40599575 9.70305889 1.57266449 14.7421875 3.97265625 C16.83461847 4.92474854 18.86725294 5.64057077 21.0625 6.3125 C25.5680051 7.7533064 29.86022328 9.60210618 34.1875 11.5 C34.86498291 11.79688721 35.54246582 12.09377441 36.24047852 12.3996582 C40.21703411 14.16132453 44.12442571 16.0230352 48 18 C44.47731356 19.20003604 44.0976993 19.04627862 40.4375 17.3125 C39.74398437 16.93867188 39.05046875 16.56484375 38.3359375 16.1796875 C31.29623109 12.62451804 23.48567006 10.43977395 16 8 C16 7.34 16 6.68 16 6 C14.5459375 6.12375 14.5459375 6.12375 13.0625 6.25 C8.18871287 6.28994907 4.26483649 4.16626615 0 2 C0 1.34 0 0.68 0 0 Z " fill="#D5E9F8" transform="translate(346,464)"/>
<path d="M0 0 C0.71962921 -0.00191345 1.43925842 -0.0038269 2.18069458 -0.00579834 C3.69159295 -0.00714913 5.20250336 -0.00353072 6.71337891 0.00488281 C8.9953896 0.01556684 11.27660757 0.00496623 13.55859375 -0.0078125 C21.26171228 -0.01411053 28.64484527 0.24085283 36.1328125 2.265625 C36.1328125 2.925625 36.1328125 3.585625 36.1328125 4.265625 C35.09447266 4.15951904 35.09447266 4.15951904 34.03515625 4.05126953 C25.72043732 3.27210697 17.4802719 3.11532967 9.1328125 3.140625 C7.85664062 3.13675781 6.58046875 3.13289063 5.265625 3.12890625 C-2.49621988 3.1368427 -10.14506631 3.47651625 -17.8671875 4.265625 C-13.38706863 -0.21449387 -5.98095212 0.0102301 0 0 Z " fill="#CEE8FB" transform="translate(771.8671875,324.734375)"/>
<path d="M0 0 C0.33 0 0.66 0 1 0 C3.76067873 15.55346677 4.17687989 31.44897683 1 47 C0.34 47.66 -0.32 48.32 -1 49 C-1.0252689 42.18238106 -1.04283244 35.36477411 -1.05493164 28.54711914 C-1.05997333 26.22582549 -1.06680651 23.90453503 -1.07543945 21.58325195 C-1.08751225 18.25471205 -1.09322979 14.92621398 -1.09765625 11.59765625 C-1.10281754 10.55287613 -1.10797882 9.50809601 -1.11329651 8.43165588 C-1.11337204 7.47073532 -1.11344757 6.50981476 -1.11352539 5.51977539 C-1.115746 4.66928116 -1.11796661 3.81878693 -1.12025452 2.94252014 C-1 1 -1 1 0 0 Z " fill="#D1EBFA" transform="translate(1022,303)"/>
<path d="M0 0 C0.33 0 0.66 0 1 0 C0.93941406 0.7528125 0.87882813 1.505625 0.81640625 2.28125 C0.73261719 3.3434375 0.64882813 4.405625 0.5625 5.5 C0.46839844 6.69109375 0.37429688 7.8821875 0.27734375 9.109375 C0.09407135 11.68035117 -0.06012086 14.25358394 -0.18359375 16.828125 C-0.534822 24.02472015 -1.18905165 31.02415995 -2.4375 38.125 C-2.5597998 38.82334961 -2.68209961 39.52169922 -2.80810547 40.24121094 C-3.56267518 44.29371145 -4.60487049 48.12262707 -6 52 C-7.78408226 48.43183548 -6.67937561 44.32303095 -6.3125 40.4375 C-6.22363525 39.47545654 -6.13477051 38.51341309 -6.04321289 37.5222168 C-3.31861754 9.95585261 -3.31861754 9.95585261 0 0 Z " fill="#CFE8F9" transform="translate(530,432)"/>
<path d="M0 0 C0.66 0.33 1.32 0.66 2 1 C1.10816594 8.51688711 1.10816594 8.51688711 0.50219727 11.22338867 C-0.41508951 16.29499903 -0.39137705 21.4480533 -0.55761719 26.59033203 C-0.62411459 28.59826441 -0.70260188 30.60578809 -0.78125 32.61328125 C-1.03682891 40.16789306 -0.93299277 47.49480973 0 55 C-0.66 55 -1.32 55 -2 55 C-4.4156323 36.05425576 -4.0946606 18.67062222 0 0 Z " fill="#D2E9FB" transform="translate(33,651)"/>
<path d="M0 0 C0.99 0 1.98 0 3 0 C4.6111024 6.17017941 3.12117822 11.83718378 2 18 C1.85433594 18.84691406 1.70867188 19.69382812 1.55859375 20.56640625 C0.52549468 25.91804559 -1.39045721 30.21583821 -4 35 C-4.66 35 -5.32 35 -6 35 C-6.33 36.32 -6.66 37.64 -7 39 C-7.66 39 -8.32 39 -9 39 C-9.33 39.99 -9.66 40.98 -10 42 C-10.66 42 -11.32 42 -12 42 C-11.6875 40.0625 -11.6875 40.0625 -11 38 C-9.515 37.505 -9.515 37.505 -8 37 C-7.27954236 35.0187415 -6.61998741 33.01495907 -6 31 C-5.51917969 30.25492188 -5.03835938 29.50984375 -4.54296875 28.7421875 C0.11104514 20.47100332 0.52090159 9.27976534 0 0 Z " fill="#D4E9F8" transform="translate(844,595)"/>
<path d="M0 0 C0 0.99 0 1.98 0 3 C-4.5681403 7.47277203 -14.30508857 17 -21 17 C-21 17.66 -21 18.32 -21 19 C-23.51953125 20.76171875 -23.51953125 20.76171875 -26.8125 22.6875 C-27.89144531 23.33074219 -28.97039062 23.97398437 -30.08203125 24.63671875 C-33 26 -33 26 -36 25 C-35.195625 24.54625 -34.39125 24.0925 -33.5625 23.625 C-30.91143428 22.25274335 -30.91143428 22.25274335 -30 20 C-22.99673736 15.63947798 -22.99673736 15.63947798 -19 15 C-18.67 13.68 -18.34 12.36 -18 11 C-16.68 11 -15.36 11 -14 11 C-14 10.34 -14 9.68 -14 9 C-13.0409375 8.566875 -13.0409375 8.566875 -12.0625 8.125 C-9.84793921 7.17176549 -9.84793921 7.17176549 -9 5 C-8.01 5 -7.02 5 -6 5 C-6.33 4.01 -6.66 3.02 -7 2 C-6.21625 2.04125 -5.4325 2.0825 -4.625 2.125 C-1.83883881 2.28728734 -1.83883881 2.28728734 0 0 Z " fill="#D1EAFC" transform="translate(420,746)"/>
<path d="M0 0 C0.33 0.99 0.66 1.98 1 3 C-0.62339805 4.70884005 -2.29319053 6.37446717 -4 8 C-4.66 8 -5.32 8 -6 8 C-6.66 9.32 -7.32 10.64 -8 12 C-8.66 12 -9.32 12 -10 12 C-10.0825 12.86625 -10.165 13.7325 -10.25 14.625 C-11.28286873 19.2729093 -13.64889903 22.39869515 -16.6875 26 C-18.39113747 28.596019 -18.65303247 30.94668571 -19 34 C-19.66 33.67 -20.32 33.34 -21 33 C-20.25892027 21.63677752 -13.16517347 11.55278546 -5 4 C-3.35135455 2.64444707 -1.68996005 1.30368347 0 0 Z " fill="#D6EDFB" transform="translate(56,618)"/>
<path d="M0 0 C11.15564363 3.32013203 20.78052291 11.11851659 30.1015625 17.8984375 C32.04033252 19.30417641 34.00742957 20.67161971 36 22 C36 22.66 36 23.32 36 24 C36.66 24.33 37.32 24.66 38 25 C33.25 24.125 33.25 24.125 31 23 C31 22.01 31 21.02 31 20 C28.34771188 18.92474806 25.71631546 17.90543849 23 17 C21.85336018 15.85336018 20.71785676 14.69474333 19.6171875 13.50390625 C17.87487013 11.88363526 16.26463402 10.96568989 14.125 9.9375 C13.42632812 9.60105469 12.72765625 9.26460938 12.0078125 8.91796875 C9.70102962 7.86331121 7.37501596 6.89063098 5 6 C5 5.34 5 4.68 5 4 C3.35 3.67 1.7 3.34 0 3 C0 2.01 0 1.02 0 0 Z " fill="#CFE8F7" transform="translate(396,484)"/>
<path d="M0 0 C1.98 0 3.96 0 6 0 C6 0.66 6 1.32 6 2 C6.99644531 2.12503906 7.99289063 2.25007812 9.01953125 2.37890625 C12.99130996 2.94773134 16.8106615 3.89871112 20.6875 4.9375 C21.66299805 5.19176758 21.66299805 5.19176758 22.65820312 5.45117188 C25.99502908 6.34575416 28.92721987 7.45398745 32 9 C33.73813388 9.42663286 35.48988665 9.80076859 37.25 10.125 C38.14203125 10.29257812 39.0340625 10.46015625 39.953125 10.6328125 C40.96632813 10.81457031 40.96632813 10.81457031 42 11 C42 11.66 42 12.32 42 13 C35.73315175 12.42631837 29.88092119 11.39688158 23.8125 9.75 C22.99676514 9.53255127 22.18103027 9.31510254 21.34057617 9.09106445 C14.07741354 7.11033104 7.02824798 4.69435281 0 2 C0 1.34 0 0.68 0 0 Z " fill="#D4EBF9" transform="translate(118,532)"/>
<path d="M0 0 C-3.68523338 3.68523338 -9.37928916 4.23842294 -14.3125 5.5625 C-15.43462891 5.87896484 -16.55675781 6.19542969 -17.71289062 6.52148438 C-28.21180976 9.36180081 -38.4732914 10.16380101 -49.3125 10.0625 C-50.58738281 10.05347656 -51.86226563 10.04445313 -53.17578125 10.03515625 C-54.10777344 10.02355469 -55.03976562 10.01195312 -56 10 C-56 9.67 -56 9.34 -56 9 C-55.38592285 8.9498877 -54.7718457 8.89977539 -54.13916016 8.84814453 C-51.30057723 8.61306189 -48.46282334 8.36907466 -45.625 8.125 C-44.65949219 8.04636719 -43.69398438 7.96773438 -42.69921875 7.88671875 C-33.43242371 7.07820643 -24.56292178 5.2289917 -15.5625 2.9375 C-14.52319336 2.67743164 -14.52319336 2.67743164 -13.46289062 2.41210938 C-3.52033354 -0.09514415 -3.52033354 -0.09514415 0 0 Z " fill="#D7EEFC" transform="translate(426,385)"/>
<path d="M0 0 C0.33 0 0.66 0 1 0 C1.08040527 0.82612793 1.16081055 1.65225586 1.24365234 2.50341797 C1.54905865 5.61629685 1.8590067 8.72868325 2.171875 11.84082031 C2.37061047 13.83104138 2.56426905 15.82176732 2.7578125 17.8125 C3.4080775 24.25012351 4.15003715 30.54959391 5.61962891 36.85595703 C6.04814358 39.27137158 6.06172789 41.55181805 6 44 C5.01 44.495 5.01 44.495 4 45 C1.86141786 33.42431114 -0.22249142 21.89861544 -0.8125 10.125 C-0.8530249 9.32989014 -0.8935498 8.53478027 -0.93530273 7.71557617 C-1.14248602 2.28497203 -1.14248602 2.28497203 0 0 Z " fill="#D3EAFA" transform="translate(519,635)"/>
<path d="M0 0 C10.89 0 21.78 0 33 0 C23.6754329 4.66228355 9.02552447 4.40612587 -1 2 C-0.67 1.34 -0.34 0.68 0 0 Z " fill="#CAEBFE" transform="translate(752,659)"/>
<path d="M0 0 C-3.88247094 3.18536893 -8.27295932 5.18010806 -12.77929688 7.30664062 C-18.2474227 9.9551719 -22.44634171 13.07464579 -26.3125 17.75 C-27.08013672 18.67039062 -27.08013672 18.67039062 -27.86328125 19.609375 C-28.23839844 20.06828125 -28.61351562 20.5271875 -29 21 C-29.66 20.34 -30.32 19.68 -31 19 C-28.86207686 14.83667598 -27.02445635 13.27469272 -23 11 C-21.55192208 9.8675643 -20.11550618 8.72014357 -18.6875 7.5625 C-12.86272471 2.99556655 -7.68757378 -0.76875738 0 0 Z " fill="#D1E7F7" transform="translate(736,556)"/>
<path d="M0 0 C0.66 0.33 1.32 0.66 2 1 C-6.00269838 8.78640923 -17.80326832 11.86376623 -28.8203125 12.046875 C-29.89925781 12.02367187 -29.89925781 12.02367187 -31 12 C-28.31089897 10.20726598 -26.64419116 9.47942831 -23.61328125 8.6328125 C-22.75669922 8.38660156 -21.90011719 8.14039063 -21.01757812 7.88671875 C-19.23432606 7.38457557 -17.45048298 6.88452588 -15.66601562 6.38671875 C-11.37596168 5.15000417 -7.44066141 3.82292121 -3.48046875 1.7421875 C-2.33191406 1.16726563 -1.18335938 0.59234375 0 0 Z " fill="#D2E9F9" transform="translate(817,647)"/>
<path d="M0 0 C0.33 0 0.66 0 1 0 C2.54596467 12.85024003 3.25074238 25.10383197 2 38 C1.01 37.67 0.02 37.34 -1 37 C-1.10396237 24.62367928 -1.19684056 12.33173224 0 0 Z " fill="#DCEEFD" transform="translate(478,603)"/>
<path d="M0 0 C0.33 0 0.66 0 1 0 C1.37739565 13.08304907 0.21618838 25.98257939 -1 39 C-1.66 38.67 -2.32 38.34 -3 38 C-2.67 29.09 -2.34 20.18 -2 11 C-1.34 11 -0.68 11 0 11 C0 7.37 0 3.74 0 0 Z " fill="#D6F1FE" transform="translate(521,515)"/>
<path d="M0 0 C3.21498025 2.59390452 3.90930048 5.34166005 5 9.25 C6.0693267 12.9515155 7.11306728 16.50993591 8.75 20 C9.98226994 22.95744785 10.28727418 24.83998401 10 28 C6.69822367 25.32101382 5.39393531 21.7863276 3.875 17.9375 C3.60929199 17.27226318 3.34358398 16.60702637 3.06982422 15.92163086 C1.05865557 10.6574001 0.02664641 5.66236239 0 0 Z " fill="#D1EAFA" transform="translate(529,701)"/>
<path d="M0 0 C3.63 0.33 7.26 0.66 11 1 C11 1.66 11 2.32 11 3 C11.99 2.67 12.98 2.34 14 2 C17.1875 3.8125 17.1875 3.8125 20 6 C20 6.66 20 7.32 20 8 C20.99 8.33 21.98 8.66 23 9 C22.67 9.66 22.34 10.32 22 11 C21.24976563 10.61328125 20.49953125 10.2265625 19.7265625 9.828125 C13.26156319 6.53862913 6.7899676 3.55374888 0 1 C0 0.67 0 0.34 0 0 Z " fill="#D1E7F8" transform="translate(815,330)"/>
<path d="M0 0 C-0.33 0.66 -0.66 1.32 -1 2 C-3.89382315 2.4832983 -6.7104434 2.84501897 -9.625 3.125 C-10.42035156 3.21136719 -11.21570313 3.29773438 -12.03515625 3.38671875 C-16.71573931 3.870917 -21.2955798 4.08828671 -26 4 C-26 3.34 -26 2.68 -26 2 C-17.2580141 0.6786742 -8.862582 -0.33165588 0 0 Z " fill="#DDF0FB" transform="translate(774,801)"/>
<path d="M0 0 C2.47170427 2.40304582 4.78577168 4.70451267 6.8125 7.5 C9.73690055 10.84217206 13.16956963 12.81516714 17 15 C16.67 15.66 16.34 16.32 16 17 C11.50930926 15.77526616 9.15626462 14.3817121 6 11 C5.34 11 4.68 11 4 11 C4 10.01 4 9.02 4 8 C3.34 7.67 2.68 7.34 2 7 C1.26924352 4.6859378 0.59861742 2.35171131 0 0 Z " fill="#D2E8FB" transform="translate(717,398)"/>
<path d="M0 0 C0.33 0 0.66 0 1 0 C1.29686516 5.0467077 1.0926459 7.94756744 -2 12 C-3.66666667 13.66666667 -5.33333333 15.33333333 -7 17 C-8.29519995 19.16620544 -8.29519995 19.16620544 -9 21 C-9.99 20.34 -10.98 19.68 -12 19 C-11.55269531 18.55011719 -11.10539063 18.10023438 -10.64453125 17.63671875 C-5.6131286 12.28347798 -2.71152997 6.79756821 0 0 Z " fill="#CDE3F9" transform="translate(852,383)"/>
<path d="M0 0 C1.9375 0.8125 1.9375 0.8125 4 2 C4.33 2.99 4.66 3.98 5 5 C5.66 5 6.32 5 7 5 C10.08467498 10.39459439 11.55643705 14.79011871 12 21 C11.34 21 10.68 21 10 21 C9.78085937 20.29875 9.56171875 19.5975 9.3359375 18.875 C7.36050402 12.96475999 5.18890647 8.34124755 1.171875 3.55859375 C0 2 0 2 0 0 Z " fill="#D0E5F7" transform="translate(833,573)"/>
<path d="M0 0 C0.33 0.66 0.66 1.32 1 2 C0.05360479 3.8589906 -0.89757032 5.71573153 -1.875 7.55859375 C-3.85305874 11.85125596 -4.88865171 16.41989797 -6 21 C-6.66 21 -7.32 21 -8 21 C-7.56497126 13.5445074 -6.98514631 7.32630589 -1.8125 1.5625 C-1.214375 1.046875 -0.61625 0.53125 0 0 Z " fill="#CDE4F7" transform="translate(704,578)"/>
<path d="M0 0 C0.33 0 0.66 0 1 0 C1.73455125 8.52079453 -0.88991341 15.19146117 -4 23 C-4.66 23 -5.32 23 -6 23 C-5.38334864 17.60607261 -4.12077204 12.71604717 -2.4375 7.5625 C-2.20353516 6.83095703 -1.96957031 6.09941406 -1.72851562 5.34570312 C-1.15732778 3.56219821 -0.57936877 1.78086417 0 0 Z " fill="#D2E8F9" transform="translate(474,658)"/>
<path d="M0 0 C3.16860855 2.65478014 4.50301588 5.83999806 6.1875 9.5625 C6.98220703 11.29693359 6.98220703 11.29693359 7.79296875 13.06640625 C9 16 9 16 9 18 C6 17 6 17 4.83203125 15.2578125 C4.49558594 14.55398438 4.15914062 13.85015625 3.8125 13.125 C3.46832031 12.42632812 3.12414062 11.72765625 2.76953125 11.0078125 C2 9 2 9 2 6 C1.34 6 0.68 6 0 6 C-0.38218767 4.34385343 -0.71395102 2.67542976 -1 1 C-0.67 0.67 -0.34 0.34 0 0 Z " fill="#D4ECFB" transform="translate(1007,265)"/>
<path d="M0 0 C7.37931337 2.21379401 14.32934955 5.1123969 21 9 C21.33 9.66 21.66 10.32 22 11 C18.25677011 10.40509382 15.34757689 9.32520845 12 7.5625 C9.449461 6.22745224 7.02195874 5.00794728 4.3125 4.02734375 C2 3 2 3 0 0 Z " fill="#D5E8F9" transform="translate(935,484)"/>
<path d="M0 0 C-6.59604221 3.67648254 -14.56020258 4.33065766 -22 4 C-21.67 3.34 -21.34 2.68 -21 2 C-18.40293178 1.32701543 -15.88415021 0.78321522 -13.25 0.3125 C-12.53328125 0.17005859 -11.8165625 0.02761719 -11.078125 -0.11914062 C-7.10390146 -0.8533492 -3.90046199 -1.14403314 0 0 Z " fill="#D6EDFC" transform="translate(306,801)"/>
<path d="M0 0 C3.60415049 1.2013835 4.14706011 2.26143988 6.1875 5.375 C6.71730469 6.16648437 7.24710937 6.95796875 7.79296875 7.7734375 C9 10 9 10 9 13 C9.66 13 10.32 13 11 13 C11 13.66 11 14.32 11 15 C9.68 14.67 8.36 14.34 7 14 C7 13.01 7 12.02 7 11 C6.34 11 5.68 11 5 11 C4.67 9.35 4.34 7.7 4 6 C3.01 5.67 2.02 5.34 1 5 C0.67 3.35 0.34 1.7 0 0 Z " fill="#D2E8F8" transform="translate(450,527)"/>
<path d="M0 0 C2.64 0.66 5.28 1.32 8 2 C8 2.66 8 3.32 8 4 C9.11375 4.2475 10.2275 4.495 11.375 4.75 C15 6 15 6 16.4375 8.125 C16.623125 8.74375 16.80875 9.3625 17 10 C12.44131062 9.4636836 9.73072364 7.58866538 6 5 C4.01492052 3.97069953 2.01885749 2.96136071 0 2 C0 1.34 0 0.68 0 0 Z " fill="#CCEBF8" transform="translate(810,557)"/>
<path d="M0 0 C2.5216376 0.11503269 5.0418119 0.24174777 7.5625 0.375 C8.61920898 0.42140625 8.61920898 0.42140625 9.69726562 0.46875 C14.41295741 0.72952558 18.50385496 1.54658123 23 3 C23 3.66 23 4.32 23 5 C20.03 4.67 17.06 4.34 14 4 C14 3.34 14 2.68 14 2 C7.07 1.505 7.07 1.505 0 1 C0 0.67 0 0.34 0 0 Z " fill="#D3EAFB" transform="translate(892,474)"/>
<path d="M0 0 C0.66 0 1.32 0 2 0 C2.37634203 6.80203375 1.77471079 11.75690073 -1 18 C-2.4049404 14.10939581 -1.69513239 10.76907638 -1.0625 6.75 C-0.86785156 5.48671875 -0.67320313 4.2234375 -0.47265625 2.921875 C-0.31667969 1.95765625 -0.16070312 0.9934375 0 0 Z " fill="#D5EBF9" transform="translate(33,363)"/>
<path d="M0 0 C4.87584204 5.3191004 5.28574132 12.14220824 5 19 C1.85380132 12.95382689 -0.53165598 6.91152768 0 0 Z " fill="#D2EDFB" transform="translate(1016,283)"/>
<path d="M0 0 C0.99 0 1.98 0 3 0 C3 5.28 3 10.56 3 16 C2.34 16.33 1.68 16.66 1 17 C0.05997013 12.61319392 0.25348463 9.38577781 1 5 C0.63141012 2.23135047 0.63141012 2.23135047 0 0 Z " fill="#BCF0FE" transform="translate(694,604)"/>
<path d="M0 0 C3 1 3 1 4.421875 3.1796875 C4.86015625 4.06914063 5.2984375 4.95859375 5.75 5.875 C6.19859375 6.75929688 6.6471875 7.64359375 7.109375 8.5546875 C8 11 8 11 7 14 C3.03810217 9.76486783 1.56818272 5.452999 0 0 Z " fill="#D2E8F9" transform="translate(460,543)"/>
<path d="M0 0 C0.66 0 1.32 0 2 0 C1.875 1.75 1.875 1.75 1 4 C-4.11111111 8 -4.11111111 8 -8 8 C-8 7.34 -8 6.68 -8 6 C-7.4225 5.7525 -6.845 5.505 -6.25 5.25 C-3.86550111 4.06009525 -3.86550111 4.06009525 -1.875 1.875 C-0.946875 0.946875 -0.946875 0.946875 0 0 Z " fill="#CDEBF9" transform="translate(830,637)"/>
<path d="M0 0 C2 1 2 1 2.66796875 2.890625 C4.38738561 10.6991046 4.38738561 10.6991046 3 15 C0.23751131 9.84335444 -0.1129027 5.87094034 0 0 Z " fill="#D1E6F8" transform="translate(524,681)"/>
<path d="M0 0 C0.66 0.33 1.32 0.66 2 1 C2 4.63 2 8.26 2 12 C1.01 11.67 0.02 11.34 -1 11 C-0.67 7.37 -0.34 3.74 0 0 Z " fill="#D5ECF9" transform="translate(531,419)"/>
<path d="M0 0 C0 0.66 0 1.32 0 2 C-1.78953185 2.83790789 -3.58169695 3.67019396 -5.375 4.5 C-6.87160156 5.19609375 -6.87160156 5.19609375 -8.3984375 5.90625 C-11 7 -11 7 -13 7 C-13 6.34 -13 5.68 -13 5 C-12.34 5 -11.68 5 -11 5 C-11 4.34 -11 3.68 -11 3 C-9.54293274 2.49632243 -8.08429904 1.99717444 -6.625 1.5 C-5.81289063 1.2215625 -5.00078125 0.943125 -4.1640625 0.65625 C-2 0 -2 0 0 0 Z " fill="#CFE6F8" transform="translate(752,328)"/>
<path d="M0 0 C2.39763185 2.39763185 2.34280586 3.33273498 2.625 6.625 C2.69976562 7.44226563 2.77453125 8.25953125 2.8515625 9.1015625 C2.90054688 9.72804688 2.94953125 10.35453125 3 11 C2.01 11.495 2.01 11.495 1 12 C-0.41404314 8.19975907 -1.34892324 5.07077118 -1 1 C-0.67 0.67 -0.34 0.34 0 0 Z " fill="#CDE7FA" transform="translate(208,410)"/>
<path d="M0 0 C0.33 0 0.66 0 1 0 C1 2.31 1 4.62 1 7 C0.34 7 -0.32 7 -1 7 C-1.12375 7.639375 -1.2475 8.27875 -1.375 8.9375 C-1.58125 9.618125 -1.7875 10.29875 -2 11 C-2.99 11.495 -2.99 11.495 -4 12 C-3.45660208 7.43545749 -2.20536179 4.0271824 0 0 Z " fill="#D7E9FC" transform="translate(852,383)"/>
<path d="M0 0 C-2.85306797 2.32472205 -5.54074837 3.7508258 -9 5 C-9.66 4.34 -10.32 3.68 -11 3 C-9.73581754 2.30034557 -8.46334598 1.61565237 -7.1875 0.9375 C-6.47980469 0.55464844 -5.77210938 0.17179688 -5.04296875 -0.22265625 C-3 -1 -3 -1 0 0 Z " fill="#D3E8F5" transform="translate(383,773)"/>
<path d="M0 0 C1.6266848 0.28211877 3.25132896 0.57602375 4.875 0.875 C5.77992188 1.03742188 6.68484375 1.19984375 7.6171875 1.3671875 C10 2 10 2 12 4 C7.06729471 5.6442351 4.45975807 4.18615592 0 2 C0 1.34 0 0.68 0 0 Z " fill="#D3EBF9" transform="translate(919,479)"/>
<path d="M0 0 C1.42944945 2.35438733 2.08661261 3.48032433 1.625 6.25 C1.41875 6.8275 1.2125 7.405 1 8 C0.34 8 -0.32 8 -1 8 C-1 9.32 -1 10.64 -1 12 C-1.66 12 -2.32 12 -3 12 C-2.40075776 7.80530429 -1.42500059 3.99000166 0 0 Z " fill="#D0E6F5" transform="translate(556,322)"/>
<path d="M0 0 C0.66 0.33 1.32 0.66 2 1 C0.8141763 4.37503669 -0.27573689 6.64722731 -3 9 C-2.25 2.25 -2.25 2.25 0 0 Z " fill="#C9F2FD" transform="translate(576,280)"/>
<path d="M0 0 C0.33 0 0.66 0 1 0 C1 3.96 1 7.92 1 12 C0.01 11.67 -0.98 11.34 -2 11 C-2 9.68 -2 8.36 -2 7 C-1.34 7 -0.68 7 0 7 C0 4.69 0 2.38 0 0 Z " fill="#D0E4F6" transform="translate(479,629)"/>
<path d="M0 0 C2 2 2 2 2.1953125 3.9453125 C2.13020833 5.96354167 2.06510417 7.98177083 2 10 C1.34 10 0.68 10 0 10 C-1.125 2.25 -1.125 2.25 0 0 Z " fill="#DDF1FE" transform="translate(33,428)"/>
<path d="M0 0 C4.24223102 -0.3636198 6.58168085 0.4606772 10 3 C10 3.66 10 4.32 10 5 C6.33118845 4.29445932 3.29549466 2.72264494 0 1 C0 0.67 0 0.34 0 0 Z " fill="#DBF1FE" transform="translate(967,230)"/>
<path d="M0 0 C0.66 0.66 1.32 1.32 2 2 C1.0409375 2.1546875 1.0409375 2.1546875 0.0625 2.3125 C-0.618125 2.539375 -1.29875 2.76625 -2 3 C-2.33 3.99 -2.66 4.98 -3 6 C-4.32 5.67 -5.64 5.34 -7 5 C-6.67 4.01 -6.34 3.02 -6 2 C-2.9375 0.8125 -2.9375 0.8125 0 0 Z " fill="#D0E6F6" transform="translate(185,214)"/>
<path d="M0 0 C0.66 0 1.32 0 2 0 C2 0.66 2 1.32 2 2 C2.66 2 3.32 2 4 2 C4.33 3.98 4.66 5.96 5 8 C2.20127563 5.47211993 0.54226981 3.79588866 0 0 Z " fill="#D5EDF7" transform="translate(540,732)"/>
<path d="M0 0 C1.96301592 3.50538557 2.95902388 7.13351728 4 11 C3.01 10.67 2.02 10.34 1 10 C-0.1577506 6.52674819 -0.06866652 3.63932552 0 0 Z " fill="#CDE4F6" transform="translate(697,623)"/>
<path d="M0 0 C0.95465783 2.16967689 1.14401212 3.56328793 0.3984375 5.82421875 C-0.35870385 7.5684743 -1.17609198 9.28627131 -2 11 C-2.66 10.34 -3.32 9.68 -4 9 C-3.34 8.01 -2.68 7.02 -2 6 C-1.64386903 4.33805547 -1.30791692 2.671549 -1 1 C-0.67 0.67 -0.34 0.34 0 0 Z " fill="#CDE7F8" transform="translate(45,629)"/>
<path d="M0 0 C2.64 0 5.28 0 8 0 C8 0.66 8 1.32 8 2 C4.52176885 3.15941038 2.54104422 2.70820884 -1 2 C-0.67 1.34 -0.34 0.68 0 0 Z " fill="#C4DBF0" transform="translate(118,601)"/>
<path d="M0 0 C1.9375 0.8125 1.9375 0.8125 4 2 C4.33 2.99 4.66 3.98 5 5 C5.66 5.33 6.32 5.66 7 6 C6.01 6.33 5.02 6.66 4 7 C0 2.25 0 2.25 0 0 Z " fill="#CAEAFD" transform="translate(833,573)"/>
<path d="M0 0 C-2.62198774 2.15377564 -4.64404172 3.40072174 -8 4 C-8 3.01 -8 2.02 -8 1 C-5.07175348 0.02391783 -3.04386724 -0.08226668 0 0 Z " fill="#CEE4F3" transform="translate(933,454)"/>
<path d="M0 0 C0.99 0.33 1.98 0.66 3 1 C1.75 2.5625 1.75 2.5625 0 4 C-2.1875 3.6875 -2.1875 3.6875 -4 3 C-2.1875 1.4375 -2.1875 1.4375 0 0 Z M-6 4 C-4 5 -4 5 -4 5 Z " fill="#C5DFF1" transform="translate(631,225)"/>
<path d="M0 0 C1.32 1.32 2.64 2.64 4 4 C3.67 4.99 3.34 5.98 3 7 C1.68 5.68 0.36 4.36 -1 3 C-0.67 2.01 -0.34 1.02 0 0 Z " fill="#CEEBF4" transform="translate(47,744)"/>
<path d="M0 0 C0.98120464 3.05263664 0.98120464 4.94736336 0 8 C-0.66 8 -1.32 8 -2 8 C-2.125 5.125 -2.125 5.125 -2 2 C-1.34 1.34 -0.68 0.68 0 0 Z " fill="#D7EBF8" transform="translate(542,372)"/>
</svg>
